<svg xmlns="http://www.w3.org/2000/svg" xmlns:xlink="http://www.w3.org/1999/xlink" version="1.1" id="Layer_1" x="0px" y="0px" style="enable-background: new 0 0 1920 1080;" xml:space="preserve" viewBox="325 328.3 1020 622.2">
    <style type="text/css">
        .st0 {
            fill: none;
            stroke: #fff;
            stroke-width: 5;
            stroke-miterlimit: 10;
        }
        .st22 {
            fill: #222;
            opacity: 0.9;
        }
    </style>
    <path
        class="st0 st-1"
        d="M636.1,813.7c9,0,17.5-2.7,24.7-7.9c7.9-5.7,13.5-14.1,16-23.7l16.8-65.9c2.4-9.5,9.8-16.9,19.3-19.3   l65.9-16.8c9.6-2.4,18-8.1,23.7-16c5.2-7.2,7.9-15.7,7.9-24.7c0-9-2.7-17.5-7.9-24.7c-5.7-7.9-14.1-13.5-23.7-16L712.8,582   c-9.5-2.4-16.9-9.8-19.3-19.3l-16.8-65.9c-2.4-9.6-8.1-18-16-23.7c-7.2-5.2-15.7-7.9-24.7-7.9c-9,0-17.5,2.7-24.7,7.9   c-7.9,5.7-13.5,14.1-16,23.7l-16.8,65.9c-2.4,9.5-9.8,16.9-19.3,19.3l-65.9,16.8c-9.6,2.4-18,8.1-23.7,16   c-5.2,7.2-7.9,15.7-7.9,24.7s2.7,17.5,7.9,24.7c5.7,7.9,14.1,13.5,23.7,16l65.9,16.8c9.5,2.4,16.9,9.8,19.3,19.3l16.8,65.9   c2.4,9.6,8.1,18,16,23.7C618.6,811,627.1,813.7,636.1,813.7L636.1,813.7z"
    ></path>
    <path
        class="st0 st-2"
        d="M636.1,858.8c18.5,0,36.2-5.7,51.1-16.5c16.4-11.9,28.2-29.3,33.3-49.1l12.5-49.1c1-3.9,4-6.9,7.8-7.8  l49.1-12.5c19.8-5,37.3-16.8,49.1-33.3c10.8-14.9,16.5-32.6,16.5-51.1c0-18.5-5.7-36.2-16.5-51.1c-11.9-16.4-29.3-28.2-49.1-33.3  l-49.1-12.5c-3.9-1-6.9-4-7.8-7.8l-12.5-49.1c-5-19.8-16.8-37.3-33.3-49.1c-14.9-10.8-32.6-16.5-51.1-16.5  c-18.5,0-36.2,5.7-51.1,16.5c-16.4,11.9-28.2,29.3-33.3,49.1l-12.5,49.1c-1,3.9-4,6.9-7.8,7.8L482.3,555  c-19.8,5-37.3,16.8-49.1,33.3c-10.8,14.9-16.5,32.6-16.5,51.1c0,18.5,5.7,36.2,16.5,51.1c11.9,16.4,29.3,28.2,49.1,33.3l49.1,12.5  c3.9,1,6.9,4,7.8,7.8l12.5,49.1c5,19.8,16.8,37.3,33.3,49.1C599.9,853.1,617.6,858.8,636.1,858.8L636.1,858.8z"
    ></path>
    <path
        class="st0 st-3"
        d="M636.1,903.9c28.1,0,54.9-8.7,77.5-25c25-18.1,42.9-44.5,50.6-74.6l6.1-24.1c0.8-3.3,3.4-5.8,6.6-6.6l24.1-6.1  c30-7.6,56.5-25.6,74.6-50.6c16.4-22.7,25-49.5,25-77.5c0-28.1-8.7-54.9-25-77.5c-18.1-25-44.5-42.9-74.6-50.6l-24.1-6.1  c-3.3-0.8-5.8-3.4-6.6-6.6l-6.1-24.1c-7.6-30-25.6-56.5-50.6-74.6c-22.7-16.4-49.5-25-77.5-25c-28.1,0-54.9,8.7-77.5,25  c-25,18.1-42.9,44.5-50.6,74.6l-6.1,24.1c-0.8,3.3-3.4,5.8-6.6,6.6l-24.1,6.1c-30,7.6-56.5,25.6-74.6,50.6  c-16.4,22.7-25,49.5-25,77.5c0,28.1,8.7,54.9,25,77.5c18.1,25,44.5,42.9,74.6,50.6l24.1,6.1c3.3,0.8,5.8,3.4,6.6,6.6l6.1,24.1  c7.6,30,25.6,56.5,50.6,74.6C581.2,895.2,608,903.9,636.1,903.9L636.1,903.9z"
    ></path>
    <path
        class="st0 st-4"
        d="M636.1,949c37.6,0,73.6-11.6,104-33.6c33.5-24.2,57.6-59.8,67.8-100l0,0c0.5-2.1,2.1-3.7,4.2-4.2l0,0  c40.3-10.2,75.8-34.3,100-67.8c22-30.4,33.6-66.4,33.6-104c0-37.6-11.6-73.6-33.6-104c-24.2-33.5-59.8-57.6-100-67.8l0,0  c-2.1-0.5-3.7-2.1-4.2-4.2l0,0c-10.2-40.3-34.3-75.8-67.8-100c-30.4-22-66.4-33.6-104-33.6c-37.6,0-73.6,11.6-104,33.6  c-33.5,24.2-57.6,59.8-67.8,100l0,0c-0.5,2.1-2.1,3.7-4.2,4.2l0,0c-40.3,10.2-75.8,34.3-100,67.8c-22,30.4-33.6,66.4-33.6,104  c0,37.6,11.6,73.6,33.6,104c24.2,33.5,59.8,57.6,100,67.8l0,0c2.1,0.5,3.7,2.1,4.2,4.2l0,0c10.2,40.3,34.3,75.8,67.8,100  C562.5,937.4,598.5,949,636.1,949L636.1,949z"
    ></path>
    <g class="plusone-text">
        <g>
            <path
                class="st22"
                d="M606.8,471.1h22.8c21.1,0,37-4.2,47.3-12.4c10.4-8.3,15.7-21.4,15.7-38.8c0-17.6-5.2-30.9-15.5-39.4    c-10.2-8.4-26.3-12.7-47.8-12.7H579v144.8h27.8V471.1z M606.8,393.4h22c12.8,0,22.1,1.9,27.7,5.7c5.4,3.7,8.1,9.8,8.1,18.8    c0,9.8-2.4,16.9-7,21.4c-4.7,4.4-13.2,6.7-25.3,6.7h-25.4V393.4z"
            ></path>
        </g>
        <g><polygon class="st22" points="894.2,487.7 819.1,487.7 819.1,367.9 792.7,367.9 792.7,512.6 894.2,512.6   "></polygon></g>
        <g>
            <path
                class="st22"
                d="M1101,447.9c0,12.3-3.1,22.2-9.2,29.3c-6.1,7.1-14.2,10.6-24.6,10.6c-10.6,0-18.7-3.4-24.8-10.6    c-6.2-6.9-9.3-16.7-9.3-29.2v-80h-27.5v80.9c0,20.4,5.7,36.6,17,48c11.3,11.5,26.3,17.3,44.6,17.3s33.3-5.8,44.6-17.3    c11.3-11.5,17-27.6,17-48v-80.9H1101V447.9z"
            ></path>
        </g>
        <g>
            <path
                class="st22"
                d="M1330.3,502.4c9.7-8,14.7-18.7,14.7-31.7c0-12.4-3.8-22.1-11.2-28.8c-7.2-6.5-18.7-11.7-34.1-15.4    c-14.1-3.4-23.4-6.7-27.7-9.9c-3.8-2.3-5.7-6-5.7-11.3c0-4.7,1.8-8.3,5.6-10.9c4-2.7,9.4-4.1,16-4.1c6.7,0,13.5,1.2,20.4,3.5    c6.8,2.3,12.3,5.3,16.3,9l1.6,1.5l15-21.1l-1.4-1.1c-14.1-11.6-31.3-17.4-51.1-17.4c-14.8,0-27.1,3.8-36.6,11.2    c-9.7,7.6-14.6,18.1-14.6,31.3c0,13.6,4.4,23.9,13.1,30.6c7.3,5.9,20.4,11.1,38.8,15.4c10.2,2.4,17.4,5.1,21.3,8    c3.6,2.7,5.4,6.3,5.4,11.1c0,4.8-2,8.5-6.1,11.5c-4.2,3.1-10,4.7-17,4.7c-14.4,0-28.9-6.1-43.1-18.3l-1.5-1.3l-17.5,20.8l1.4,1.3    c17.8,15.6,38,23.5,60.1,23.5C1308,514.3,1320.7,510.3,1330.3,502.4z"
            ></path>
        </g>
        <g>
            <path
                class="st22"
                d="M843.6,565.1c-21.6,0-39.8,7.2-54.4,21.4c-14.5,14.2-21.9,32.2-21.9,53.4c0,21.2,7.4,39.2,21.9,53.4    c14.5,14.2,32.8,21.4,54.4,21.4c21.2,0,39.4-7.3,54.1-21.6c14.7-14.1,22.2-32.1,22.2-53.3c0-21.2-7.4-39.1-21.9-53.4    C883.4,572.4,865.1,565.1,843.6,565.1z M843.6,689c-13.4,0-24.9-4.8-34-14.2c-9.2-9.5-13.9-21.2-13.9-34.8s4.7-25.4,13.9-35    c9.2-9.5,20.6-14.4,34-14.4s24.9,4.8,34,14.4c9.2,9.6,13.9,21.3,13.9,35s-4.7,25.3-13.9,34.8C868.4,684.2,857,689,843.6,689z"
            ></path>
        </g>
        <g><polygon class="st22" points="1103.8,667.2 1029.9,572.1 1004.7,572.1 1004.7,707.8 1030.8,707.8 1030.8,614.9 1102.9,707.8     1129.6,707.8 1129.6,572.1 1103.8,572.1   "></polygon></g>
        <g><polygon class="st22" points="1263.2,652.1 1330.6,652.1 1330.6,627.2 1263.2,627.2 1263.2,593.7 1338.4,593.7 1338.4,567.6     1235.4,567.6 1235.4,712.4 1340.7,712.4 1340.7,686 1263.2,686   "></polygon></g>
        <g>
            <path
                class="st22"
                d="M639.2,695.6l8.9-35.1c0.8-3,3.1-5.3,6.1-6.1l35.1-8.9c4.9-1.3,4.9-8.3,0-9.5l-35.1-8.9    c-3-0.8-5.3-3.1-6.1-6.1l-8.9-35.1c-1.3-4.9-8.3-4.9-9.5,0l-8.9,35.1c-0.8,3-3.1,5.3-6.1,6.1l-35.1,8.9c-4.9,1.3-4.9,8.3,0,9.5    l35.1,8.9c3,0.8,5.3,3.1,6.1,6.1l8.9,35.1C630.9,700.6,637.9,700.6,639.2,695.6z"
            ></path>
        </g>
    </g>
</svg>
