<svg width="748" height="514" viewBox="0 0 748 514" fill="none" xmlns="http://www.w3.org/2000/svg">
<g clip-path="url(#clip0_1565_34)">
<rect width="748" height="514" fill="white"/>
<mask id="mask0_1565_34" style="mask-type:alpha" maskUnits="userSpaceOnUse" x="-2" y="-2" width="1032" height="1032">
<g opacity="0.3">
<path d="M513.843 803.131C528.728 803.131 542.899 798.569 554.826 789.945C567.886 780.498 577.312 766.54 581.351 750.625L609.157 641.192C613.159 625.439 625.454 613.144 641.207 609.141L750.641 581.336C766.548 577.296 780.513 567.871 789.961 554.811C798.584 542.884 803.146 528.713 803.146 513.828C803.146 498.943 798.584 484.771 789.961 472.844C780.513 459.784 766.556 450.359 750.641 446.319L641.207 418.514C625.454 414.511 613.159 402.216 609.157 386.463L581.359 277.03C577.319 261.122 567.894 247.157 554.834 237.71C542.906 229.086 528.735 224.525 513.85 224.525C498.965 224.525 484.794 229.086 472.867 237.71C459.807 247.157 450.382 261.115 446.342 277.03L418.544 386.463C414.542 402.216 402.247 414.511 386.493 418.514L277.06 446.319C261.153 450.359 247.187 459.777 237.74 472.844C229.117 484.771 224.555 498.943 224.555 513.828C224.555 528.713 229.117 542.884 237.74 554.811C247.187 567.871 261.145 577.296 277.06 581.336L386.493 609.134C402.247 613.136 414.542 625.431 418.544 641.185L446.342 750.618C450.382 766.525 459.807 780.491 472.867 789.938C484.794 798.561 498.965 803.123 513.85 803.123L513.843 803.131Z" stroke="#CACACA" stroke-width="2.94314" stroke-miterlimit="10"/>
<path d="M513.842 877.975C544.576 877.975 573.912 868.505 598.678 850.596C625.924 830.892 645.533 801.939 653.892 769.057L674.589 687.583C676.215 681.189 681.204 676.201 687.598 674.575L769.071 653.877C801.953 645.526 830.907 625.917 850.611 598.664C868.52 573.89 877.989 544.554 877.989 513.828C877.989 483.101 868.52 453.758 850.611 428.992C830.907 401.738 801.946 382.137 769.071 373.778L687.598 353.081C681.204 351.455 676.215 346.466 674.589 340.072L653.892 258.599C645.54 225.717 625.932 196.764 598.678 177.059C573.904 159.15 544.569 149.681 513.842 149.681C483.116 149.681 453.773 159.15 429.006 177.059C401.753 196.764 382.144 225.724 373.793 258.599L353.096 340.072C351.469 346.466 346.481 351.455 340.087 353.081L258.613 373.778C225.739 382.13 196.778 401.738 177.074 428.992C159.165 453.758 149.695 483.101 149.695 513.828C149.695 544.554 159.165 573.897 177.074 598.664C196.778 625.917 225.739 645.518 258.613 653.877L340.087 674.575C346.481 676.201 351.469 681.189 353.096 687.583L373.793 769.057C382.144 801.939 401.753 830.892 429.006 850.596C453.78 868.505 483.116 877.975 513.842 877.975Z" stroke="#CACACA" stroke-width="2.94314" stroke-miterlimit="10"/>
<path d="M513.842 952.826C560.417 952.826 604.918 938.449 642.538 911.254C683.978 881.293 713.769 837.345 726.432 787.495L736.579 747.557C737.947 742.164 742.163 737.948 747.557 736.579L787.495 726.433C837.344 713.77 881.3 683.97 911.261 642.538C938.456 604.925 952.833 560.425 952.833 513.842C952.833 467.26 938.456 422.76 911.261 385.146C881.3 343.707 837.344 313.915 787.495 301.252L747.557 291.106C742.163 289.737 737.947 285.521 736.579 280.128L726.432 240.189C713.769 190.34 683.97 146.384 642.538 116.423C604.925 89.2286 560.417 74.8513 513.842 74.8513C467.267 74.8513 422.767 89.2286 385.146 116.423C343.707 146.384 313.907 190.34 301.245 240.189L291.098 280.128C289.73 285.521 285.514 289.737 280.12 291.106L240.182 301.252C190.332 313.915 146.384 343.707 116.416 385.154C89.221 422.767 74.8438 467.267 74.8438 513.842C74.8438 560.417 89.221 604.918 116.416 642.538C146.377 683.978 190.332 713.77 240.182 726.44L280.12 736.586C285.514 737.955 289.73 742.171 291.098 747.564L301.245 787.503C313.907 837.352 343.707 881.308 385.146 911.269C422.759 938.463 467.26 952.841 513.842 952.841V952.826Z" stroke="#CACACA" stroke-width="2.94314" stroke-miterlimit="10"/>
<path d="M513.842 1027.67C576.266 1027.67 635.931 1008.39 686.391 971.905C742.016 931.687 781.999 872.743 798.974 805.919C799.842 802.498 802.505 799.834 805.919 798.966C872.736 781.992 931.687 742.009 971.905 686.384C1008.39 635.931 1027.67 576.259 1027.67 513.835C1027.67 451.411 1008.39 391.739 971.905 341.286C931.687 285.661 872.736 245.678 805.912 228.704C802.498 227.836 799.834 225.172 798.966 221.758C781.992 154.934 742.009 95.9904 686.384 55.7651C635.924 19.2849 576.259 0 513.835 0C451.411 0 391.746 19.2849 341.286 55.7651C285.661 95.9904 245.671 154.934 228.696 221.751C227.828 225.165 225.165 227.828 221.751 228.696C154.934 245.671 95.9831 285.654 55.7651 341.286C19.2849 391.739 0 451.404 0 513.835C0 576.266 19.2849 635.924 55.7651 686.384C95.9904 742.009 154.934 781.992 221.751 798.966C225.165 799.834 227.828 802.498 228.696 805.912C245.671 872.736 285.654 931.68 341.286 971.905C391.746 1008.39 451.411 1027.67 513.835 1027.67H513.842Z" stroke="#CACACA" stroke-width="2.94314" stroke-miterlimit="10"/>
<path d="M324.855 530.221L445.745 560.933C456.068 563.552 464.124 571.616 466.744 581.932L497.456 702.821C501.775 719.81 525.908 719.81 530.22 702.821L560.932 581.932C563.551 571.609 571.615 563.552 581.931 560.933L702.82 530.221C719.81 525.902 719.81 501.768 702.82 497.457L581.931 466.745C571.608 464.125 563.551 456.061 560.932 445.746L530.22 324.856C525.901 307.867 501.767 307.867 497.456 324.856L466.744 445.746C464.124 456.069 456.06 464.125 445.745 466.745L324.855 497.457C307.866 501.776 307.866 525.909 324.855 530.221V530.221Z" stroke="#CACACA" stroke-width="2.94314" stroke-miterlimit="10"/>
</g>
</mask>
<g mask="url(#mask0_1565_34)">
<rect x="-8.09375" y="-16.1873" width="756.386" height="529.765" fill="#CECECE"/>
</g>
</g>
<defs>
<clipPath id="clip0_1565_34">
<rect width="748" height="514" fill="white"/>
</clipPath>
</defs>
</svg>
