<svg width="1119" height="510" viewBox="0 0 1119 510" fill="none" xmlns="http://www.w3.org/2000/svg">
<g clip-path="url(#clip0_1928_12)">
<path d="M44.9407 155.345H78.1683C108.866 155.345 132.03 149.29 146.985 137.328C162.165 125.217 169.849 106.207 169.849 80.8221C169.849 55.4374 162.24 35.9021 147.228 23.5097C132.386 11.2485 108.997 5.04297 77.7372 5.04297H4.4978V215.732H44.9407V155.345ZM44.9407 42.1264H76.9126C95.5223 42.1264 109.109 44.9198 117.243 50.4505C125.152 55.8124 128.994 64.7739 128.994 77.8787C128.994 92.0896 125.545 102.551 118.78 108.963C111.939 115.412 99.5516 118.674 81.9352 118.674H44.9407V42.1264Z" fill="white"/>
<path d="M463.069 179.474H353.809V5.02441H315.465V215.732H463.069V179.474Z" fill="white"/>
<path d="M763.935 121.487C763.935 139.428 759.437 153.771 750.573 164.101C741.69 174.449 729.977 179.474 714.778 179.474C699.579 179.474 687.529 174.449 678.739 164.063C669.762 154.033 665.208 139.71 665.208 121.487V5.02441H625.196V122.743C625.196 152.458 633.498 175.968 649.897 192.654C666.295 209.339 688.128 217.813 714.778 217.813C741.427 217.813 763.26 209.339 779.659 192.654C796.057 175.968 804.359 152.439 804.359 122.743V5.02441H763.916V121.487H763.935Z" fill="white"/>
<path d="M1097.65 200.828C1111.82 189.129 1119 173.587 1119 154.614C1119 135.641 1113.55 122.424 1102.77 112.675C1092.28 103.189 1075.56 95.6146 1053.13 90.2152C1032.62 85.3033 1019.15 80.5226 1012.85 75.8731C1007.29 72.4797 1004.57 67.099 1004.57 59.4124C1004.57 52.5132 1007.25 47.3012 1012.78 43.4954C1018.57 39.5021 1026.42 37.4961 1036.13 37.4961C1045.84 37.4961 1055.81 39.2209 1065.81 42.5955C1075.75 45.9514 1083.73 50.3384 1089.56 55.6441L1091.92 57.7813L1113.73 27.0347L1111.69 25.3661C1091.15 8.5305 1066.15 -0.0185547 1037.38 -0.0185547C1015.87 -0.0185547 997.953 5.47459 984.084 16.3109C970.01 27.2972 962.87 42.6517 962.87 61.9434C962.87 81.235 969.298 96.7958 981.948 106.488C992.574 115.112 1011.58 122.63 1038.41 128.836C1053.31 132.361 1063.75 136.298 1069.45 140.516C1074.75 144.453 1077.32 149.759 1077.32 156.695C1077.32 163.632 1074.42 169.125 1068.42 173.494C1062.23 178.012 1053.91 180.299 1043.68 180.299C1022.67 180.299 1001.57 171.356 980.973 153.733L978.799 151.877L953.387 182.174L955.467 183.992C981.292 206.715 1010.7 218.245 1042.84 218.245C1065.21 218.245 1083.65 212.377 1097.65 200.828Z" fill="white"/>
<path d="M389.436 292.187C358.082 292.187 331.47 302.685 310.33 323.383C289.191 344.118 278.452 370.253 278.452 401.093C278.452 431.934 289.172 458.087 310.33 478.803C331.451 499.52 358.063 510.019 389.436 510.019C420.808 510.019 446.708 499.445 468.11 478.616C489.55 458.031 500.419 431.952 500.419 401.112C500.419 370.272 489.699 344.137 468.541 323.402C447.401 302.704 420.789 292.205 389.436 292.205V292.187ZM389.436 472.485C369.926 472.485 353.266 465.511 339.904 451.75C326.523 437.97 319.738 420.929 319.738 401.093C319.738 381.258 326.523 364.141 339.904 350.211C353.266 336.319 369.926 329.27 389.417 329.27C408.907 329.27 425.568 336.319 438.93 350.211C452.311 364.141 459.096 381.258 459.096 401.093C459.096 420.929 452.311 437.97 438.93 451.75C425.568 465.511 408.908 472.485 389.398 472.485H389.436Z" fill="white"/>
<path d="M768.114 440.726L660.485 302.367H623.959V499.82H661.835V364.61L766.709 499.82H805.615V302.367H768.114V440.726Z" fill="white"/>
<path d="M1000.03 418.81H1098.12V382.551H1000.03V333.694H1109.44V295.749H959.609V506.438H1112.8V468.08H1000.03V418.81Z" fill="white"/>
<path d="M92.074 482.103L105.043 431.052C106.148 426.703 109.559 423.291 113.907 422.185L164.939 409.211C172.116 407.392 172.116 397.194 164.939 395.375L113.907 382.401C109.559 381.295 106.148 377.883 105.043 373.534L92.074 322.483C90.2562 315.303 80.0611 315.303 78.2433 322.483L65.2746 373.534C64.1689 377.883 60.758 381.295 56.4101 382.401L5.37868 395.375C-1.79908 397.194 -1.79908 407.392 5.37868 409.211L56.4101 422.185C60.758 423.291 64.1689 426.703 65.2746 431.052L78.2433 482.103C80.0611 489.283 90.2562 489.283 92.074 482.103Z" fill="white"/>
</g>
<defs>
<clipPath id="clip0_1928_12">
<rect width="1119" height="510" fill="white"/>
</clipPath>
</defs>
</svg>
