<svg width="1233" height="632" viewBox="0 0 1233 632" fill="none" xmlns="http://www.w3.org/2000/svg">
<path d="M55.1984 516.729L38.4501 512.455C37.0489 512.121 35.9145 510.986 35.5142 509.516L31.2437 492.753C30.6431 490.416 27.3068 490.416 26.7063 492.753L22.4358 509.516C22.1022 510.919 20.9678 512.054 19.4999 512.455L2.75156 516.729C0.416145 517.33 0.416145 520.67 2.75156 521.271L19.4999 525.545C20.9011 525.879 22.0355 527.014 22.4358 528.484L26.7063 545.247C27.3068 547.584 30.6431 547.584 31.2437 545.247L35.5142 528.484C35.8478 527.081 36.9821 525.946 38.4501 525.545L55.1984 521.271C57.6005 520.736 57.6005 517.33 55.1984 516.729Z" stroke="#00A3FF" stroke-width="2" stroke-miterlimit="10"/>
<path d="M687.888 155.832L699.213 166.622C700.262 167.63 700.262 169.244 699.213 170.353L687.888 181.244C686.839 182.252 685.161 182.252 684.007 181.244L672.787 170.353C671.738 169.345 671.738 167.731 672.787 166.622L684.007 155.832C685.056 154.723 686.839 154.723 687.888 155.832Z" stroke="#00A3FF" stroke-width="2" stroke-miterlimit="10"/>
<path d="M935.32 565.832L946.242 576.622C947.253 577.63 947.253 579.244 946.242 580.353L935.32 591.244C934.309 592.252 932.691 592.252 931.579 591.244L920.758 580.353C919.747 579.345 919.747 577.731 920.758 576.622L931.579 565.832C932.59 564.723 934.309 564.723 935.32 565.832Z" stroke="#00A3FF" stroke-width="2" stroke-miterlimit="10"/>
<path d="M1087.32 139.832L1098.24 150.622C1099.25 151.63 1099.25 153.244 1098.24 154.353L1087.32 165.244C1086.31 166.252 1084.69 166.252 1083.58 165.244L1072.76 154.353C1071.75 153.345 1071.75 151.731 1072.76 150.622L1083.58 139.832C1084.59 138.723 1086.31 138.723 1087.32 139.832Z" stroke="#00A3FF" stroke-width="2" stroke-miterlimit="10"/>
<g filter="url(#filter0_d_1608_2)">
<path d="M1162.04 297.952L1058.07 271.614C1049.2 269.364 1042.26 262.451 1040.01 253.603L1013.59 149.927C1009.88 135.358 989.118 135.358 985.408 149.927L958.993 253.595C956.736 262.444 949.803 269.357 940.929 271.607L836.959 297.945C822.347 301.645 822.347 322.348 836.959 326.048L940.929 352.386C949.803 354.636 956.736 361.549 958.993 370.397L985.408 474.073C989.118 488.642 1009.88 488.642 1013.59 474.073L1040.01 370.397C1042.26 361.549 1049.2 354.636 1058.07 352.386L1162.04 326.048C1176.65 322.348 1176.65 301.645 1162.04 297.945V297.952Z" fill="url(#paint0_linear_1608_2)"/>
</g>
<defs>
<filter id="filter0_d_1608_2" x="683" y="0" width="633" height="632" filterUnits="userSpaceOnUse" color-interpolation-filters="sRGB">
<feFlood flood-opacity="0" result="BackgroundImageFix"/>
<feColorMatrix in="SourceAlpha" type="matrix" values="0 0 0 0 0 0 0 0 0 0 0 0 0 0 0 0 0 0 127 0" result="hardAlpha"/>
<feOffset dy="4"/>
<feGaussianBlur stdDeviation="71.5"/>
<feComposite in2="hardAlpha" operator="out"/>
<feColorMatrix type="matrix" values="0 0 0 0 0.00784314 0 0 0 0 0.717647 0 0 0 0 1 0 0 0 0.29 0"/>
<feBlend mode="normal" in2="BackgroundImageFix" result="effect1_dropShadow_1608_2"/>
<feBlend mode="normal" in="SourceGraphic" in2="effect1_dropShadow_1608_2" result="shape"/>
</filter>
<linearGradient id="paint0_linear_1608_2" x1="1000.14" y1="485" x2="1089.88" y2="158.753" gradientUnits="userSpaceOnUse">
<stop stop-color="#01DAFE"/>
<stop offset="1" stop-color="#0212FF"/>
</linearGradient>
</defs>
</svg>
