<?xml version="1.0" encoding="UTF-8"?>
<svg width="700pt" height="700pt" version="1.1" viewBox="0 0 700 700" xmlns="http://www.w3.org/2000/svg" xmlns:xlink="http://www.w3.org/1999/xlink">
 <defs>
  <symbol id="x" overflow="visible">
   <path d="m17.047-1.0156c-0.875 0.46094-1.793 0.80469-2.75 1.0312-0.94922 0.22656-1.9375 0.34375-2.9688 0.34375-3.0938 0-5.5469-0.86328-7.3594-2.5938-1.8047-1.7266-2.7031-4.0703-2.7031-7.0312 0-2.957 0.89844-5.3008 2.7031-7.0312 1.8125-1.7266 4.2656-2.5938 7.3594-2.5938 1.0312 0 2.0195 0.12109 2.9688 0.35938 0.95703 0.23047 1.875 0.57031 2.75 1.0156v3.8438c-0.88672-0.60156-1.7617-1.0469-2.625-1.3281-0.85547-0.28125-1.7617-0.42188-2.7188-0.42188-1.7109 0-3.0547 0.54688-4.0312 1.6406-0.96875 1.0938-1.4531 2.6016-1.4531 4.5156 0 1.918 0.48438 3.4219 1.4531 4.5156 0.97656 1.0938 2.3203 1.6406 4.0312 1.6406 0.95703 0 1.8633-0.14062 2.7188-0.42188 0.86328-0.28125 1.7383-0.72266 2.625-1.3281z"/>
  </symbol>
  <symbol id="d" overflow="visible">
   <path d="m12.484-10.125c-0.39844-0.1875-0.78906-0.32031-1.1719-0.40625-0.38672-0.082031-0.77344-0.125-1.1562-0.125-1.1484 0-2.0273 0.36719-2.6406 1.0938-0.61719 0.73047-0.92188 1.7812-0.92188 3.1562v6.4062h-4.4531v-13.922h4.4531v2.2812c0.5625-0.90625 1.2109-1.5664 1.9531-1.9844 0.75-0.41406 1.6406-0.625 2.6719-0.625 0.15625 0 0.31641 0.007812 0.48438 0.015625 0.17578 0.011719 0.42969 0.039063 0.76562 0.078125z"/>
  </symbol>
  <symbol id="a" overflow="visible">
   <path d="m16.031-7v1.2656h-10.406c0.11328 1.0547 0.49219 1.8398 1.1406 2.3594 0.64453 0.52344 1.5469 0.78125 2.7031 0.78125 0.9375 0 1.8945-0.14062 2.875-0.42188 0.97656-0.28125 1.9883-0.70312 3.0312-1.2656v3.4375c-1.0547 0.39844-2.1055 0.69531-3.1562 0.89062-1.0547 0.20703-2.1055 0.3125-3.1562 0.3125-2.5234 0-4.4805-0.64062-5.875-1.9219-1.3984-1.2812-2.0938-3.0781-2.0938-5.3906 0-2.2695 0.67969-4.0508 2.0469-5.3438 1.375-1.3008 3.2656-1.9531 5.6719-1.9531 2.1875 0 3.9375 0.66406 5.25 1.9844 1.3125 1.3125 1.9688 3.0703 1.9688 5.2656zm-4.5781-1.4688c0-0.85156-0.24609-1.5352-0.73438-2.0469-0.49219-0.51953-1.1367-0.78125-1.9375-0.78125-0.85547 0-1.5547 0.24609-2.0938 0.73438-0.54297 0.48047-0.875 1.1797-1 2.0938z"/>
  </symbol>
  <symbol id="f" overflow="visible">
   <path d="m8.375-6.2656c-0.92969 0-1.625 0.16406-2.0938 0.48438-0.46875 0.3125-0.70312 0.77344-0.70312 1.375 0 0.57422 0.1875 1.0234 0.5625 1.3438 0.38281 0.3125 0.91016 0.46875 1.5781 0.46875 0.83203 0 1.5352-0.30078 2.1094-0.90625 0.57031-0.60156 0.85938-1.3516 0.85938-2.25v-0.51562zm6.7969-1.6719v7.9375h-4.4844v-2.0625c-0.59375 0.84375-1.2656 1.4609-2.0156 1.8438-0.74219 0.38281-1.6484 0.57812-2.7188 0.57812-1.4375 0-2.6094-0.41406-3.5156-1.25-0.89844-0.84375-1.3438-1.9375-1.3438-3.2812 0-1.6328 0.5625-2.832 1.6875-3.5938 1.125-0.75781 2.8828-1.1406 5.2812-1.1406h2.625v-0.35938c0-0.69531-0.28125-1.207-0.84375-1.5312-0.55469-0.33203-1.4141-0.5-2.5781-0.5-0.96094 0-1.8516 0.10156-2.6719 0.29688-0.8125 0.1875-1.5742 0.46875-2.2812 0.84375v-3.3906c0.94531-0.22656 1.8984-0.39844 2.8594-0.51562 0.96875-0.125 1.9297-0.1875 2.8906-0.1875 2.5078 0 4.3203 0.49609 5.4375 1.4844 1.1133 0.99219 1.6719 2.6016 1.6719 4.8281z"/>
  </symbol>
  <symbol id="c" overflow="visible">
   <path d="m7-17.875v3.9531h4.5781v3.1875h-4.5781v5.9062c0 0.64844 0.125 1.0859 0.375 1.3125 0.25781 0.21875 0.76953 0.32812 1.5312 0.32812h2.2969v3.1875h-3.8281c-1.75 0-2.9961-0.36328-3.7344-1.0938-0.73047-0.73828-1.0938-1.9844-1.0938-3.7344v-5.9062h-2.2188v-3.1875h2.2188v-3.9531z"/>
  </symbol>
  <symbol id="l" overflow="visible">
   <path d="m11.609-11.875v-7.4688h4.4688v19.344h-4.4688v-2.0156c-0.61719 0.82422-1.293 1.4297-2.0312 1.8125-0.74219 0.375-1.5938 0.5625-2.5625 0.5625-1.7109 0-3.1172-0.67969-4.2188-2.0469-1.1055-1.3633-1.6562-3.1172-1.6562-5.2656 0-2.1445 0.55078-3.8945 1.6562-5.25 1.1016-1.3633 2.5078-2.0469 4.2188-2.0469 0.96875 0 1.8203 0.19531 2.5625 0.57812 0.73828 0.38672 1.4141 0.98438 2.0312 1.7969zm-2.9375 9c0.95703 0 1.6875-0.34375 2.1875-1.0312 0.5-0.69531 0.75-1.7109 0.75-3.0469 0-1.3203-0.25-2.332-0.75-3.0312-0.5-0.69531-1.2305-1.0469-2.1875-1.0469-0.9375 0-1.6641 0.35156-2.1719 1.0469-0.5 0.69922-0.75 1.7109-0.75 3.0312 0 1.3359 0.25 2.3516 0.75 3.0469 0.50781 0.6875 1.2344 1.0312 2.1719 1.0312z"/>
  </symbol>
  <symbol id="k" overflow="visible">
   <path d="m9.5469-2.875c0.94531 0 1.6719-0.34375 2.1719-1.0312 0.50781-0.69531 0.76562-1.7109 0.76562-3.0469 0-1.3203-0.25781-2.332-0.76562-3.0312-0.5-0.69531-1.2266-1.0469-2.1719-1.0469-0.96094 0-1.6953 0.35547-2.2031 1.0625-0.5 0.69922-0.75 1.7031-0.75 3.0156 0 1.3242 0.25 2.3359 0.75 3.0312 0.50781 0.69922 1.2422 1.0469 2.2031 1.0469zm-2.9531-9c0.60156-0.8125 1.2812-1.4102 2.0312-1.7969 0.75-0.38281 1.6094-0.57812 2.5781-0.57812 1.707 0 3.1133 0.68359 4.2188 2.0469 1.1016 1.3555 1.6562 3.1055 1.6562 5.25 0 2.1484-0.55469 3.9023-1.6562 5.2656-1.1055 1.3672-2.5117 2.0469-4.2188 2.0469-0.96875 0-1.8281-0.19531-2.5781-0.57812s-1.4297-0.98438-2.0312-1.7969v2.0156h-4.4531v-19.344h4.4531z"/>
  </symbol>
  <symbol id="j" overflow="visible">
   <path d="m0.3125-13.922h4.4531l3.7344 9.4531 3.1875-9.4531h4.4375l-5.8438 15.234c-0.59375 1.5508-1.2812 2.6328-2.0625 3.25-0.78125 0.625-1.8125 0.9375-3.0938 0.9375h-2.5781v-2.9219h1.3906c0.75781 0 1.3125-0.12109 1.6562-0.35938 0.34375-0.24219 0.60938-0.67188 0.79688-1.2969l0.125-0.39062z"/>
  </symbol>
  <symbol id="i" overflow="visible">
   <path d="m2.3438-18.562h6.0781l4.2344 9.9375 4.25-9.9375h6.0781v18.562h-4.5312v-13.578l-4.2656 10.016h-3.0469l-4.2656-10.016v13.578h-4.5312z"/>
  </symbol>
  <symbol id="h" overflow="visible">
   <path d="m2.1406-13.922h4.4531v13.922h-4.4531zm0-5.4219h4.4531v3.6406h-4.4531z"/>
  </symbol>
  <symbol id="e" overflow="visible">
   <path d="m16.125-8.4688v8.4688h-4.4688v-6.4688c0-1.2188-0.027344-2.0508-0.078125-2.5-0.054687-0.45703-0.14844-0.79688-0.28125-1.0156-0.17969-0.28906-0.41797-0.51562-0.71875-0.67188-0.29297-0.16406-0.63281-0.25-1.0156-0.25-0.92969 0-1.6562 0.35938-2.1875 1.0781-0.52344 0.71875-0.78125 1.7148-0.78125 2.9844v6.8438h-4.4531v-19.344h4.4531v7.4688c0.66406-0.8125 1.375-1.4102 2.125-1.7969 0.75781-0.38281 1.5938-0.57812 2.5-0.57812 1.6133 0 2.832 0.49609 3.6562 1.4844 0.83203 0.98047 1.25 2.4141 1.25 4.2969z"/>
  </symbol>
  <symbol id="w" overflow="visible">
   <path d="m2.1406-19.344h4.4531v19.344h-4.4531z"/>
  </symbol>
  <symbol id="v" overflow="visible">
   <path d="m1.4219-18.562h15.609v2.9062l-9.9531 12.047h10.234v3.6094h-16.172v-2.8906l9.9531-12.047h-9.6719z"/>
  </symbol>
  <symbol id="g" overflow="visible">
   <path d="m1.9844-5.4219v-8.5h4.4844v1.3906c0 0.76172-0.007812 1.7109-0.015625 2.8438-0.011719 1.1367-0.015625 1.8984-0.015625 2.2812 0 1.1172 0.023438 1.9219 0.078125 2.4219 0.0625 0.49219 0.16406 0.84375 0.3125 1.0625 0.17578 0.29297 0.41016 0.52344 0.70312 0.6875 0.30078 0.15625 0.64062 0.23438 1.0156 0.23438 0.92578 0 1.6562-0.35156 2.1875-1.0625 0.53125-0.71875 0.79688-1.7109 0.79688-2.9844v-6.875h4.4531v13.922h-4.4531v-2.0156c-0.66797 0.8125-1.375 1.4141-2.125 1.7969s-1.5781 0.57812-2.4844 0.57812c-1.6055 0-2.8281-0.48828-3.6719-1.4688-0.84375-0.98828-1.2656-2.4258-1.2656-4.3125z"/>
  </symbol>
  <symbol id="u" overflow="visible">
   <path d="m2.1406-19.344h4.4531v10.531l5.1094-5.1094h5.1719l-6.7969 6.3906 7.3281 7.5312h-5.3906l-5.4219-5.7969v5.7969h-4.4531z"/>
  </symbol>
  <symbol id="b" overflow="visible">
   <path d="m8.7656-11.078c-0.99219 0-1.7461 0.35547-2.2656 1.0625-0.51172 0.71094-0.76562 1.7305-0.76562 3.0625 0 1.3359 0.25391 2.3555 0.76562 3.0625 0.51953 0.71094 1.2734 1.0625 2.2656 1.0625 0.96875 0 1.707-0.35156 2.2188-1.0625 0.50781-0.70703 0.76562-1.7266 0.76562-3.0625 0-1.332-0.25781-2.3516-0.76562-3.0625-0.51172-0.70703-1.25-1.0625-2.2188-1.0625zm0-3.1719c2.3945 0 4.2656 0.64844 5.6094 1.9375 1.3438 1.293 2.0156 3.0781 2.0156 5.3594 0 2.293-0.67188 4.0859-2.0156 5.375-1.3438 1.293-3.2148 1.9375-5.6094 1.9375-2.4062 0-4.2891-0.64453-5.6406-1.9375-1.3555-1.2891-2.0312-3.082-2.0312-5.375 0-2.2812 0.67578-4.0664 2.0312-5.3594 1.3516-1.2891 3.2344-1.9375 5.6406-1.9375z"/>
  </symbol>
  <symbol id="t" overflow="visible">
   <path d="m0.39062-13.922h4.4375l3.4688 9.625 3.4531-9.625h4.4688l-5.4844 13.922h-4.875z"/>
  </symbol>
  <symbol id="s" overflow="visible">
   <path d="m11.297-19.344v2.9219h-2.4531c-0.63672 0-1.0781 0.11719-1.3281 0.34375-0.25 0.23047-0.375 0.625-0.375 1.1875v0.96875h3.8125v3.1875h-3.8125v10.734h-4.4375v-10.734h-2.2188v-3.1875h2.2188v-0.96875c0-1.5078 0.42188-2.6289 1.2656-3.3594 0.84375-0.72656 2.1484-1.0938 3.9219-1.0938z"/>
  </symbol>
  <symbol id="r" overflow="visible">
   <path d="m15.031-11.609c0.57031-0.86328 1.2422-1.5195 2.0156-1.9688 0.76953-0.44531 1.6172-0.67188 2.5469-0.67188 1.6016 0 2.8203 0.49609 3.6562 1.4844 0.84375 0.98047 1.2656 2.4141 1.2656 4.2969v8.4688h-4.4844v-7.2656c0.007812-0.10156 0.015625-0.21094 0.015625-0.32812 0.007813-0.11328 0.015625-0.28125 0.015625-0.5 0-0.97656-0.14844-1.6914-0.4375-2.1406-0.29297-0.44531-0.76172-0.67188-1.4062-0.67188-0.84375 0-1.4961 0.35156-1.9531 1.0469-0.46094 0.69922-0.69922 1.7109-0.71875 3.0312v6.8281h-4.4688v-7.2656c0-1.5312-0.13672-2.5195-0.40625-2.9688-0.26172-0.44531-0.73047-0.67188-1.4062-0.67188-0.85547 0-1.5156 0.35547-1.9844 1.0625-0.46094 0.69922-0.6875 1.6992-0.6875 3v6.8438h-4.4844v-13.922h4.4844v2.0469c0.53906-0.78906 1.1641-1.3828 1.875-1.7812 0.70703-0.39453 1.4883-0.59375 2.3438-0.59375 0.95703 0 1.8047 0.23438 2.5469 0.70312 0.73828 0.46094 1.2969 1.1055 1.6719 1.9375z"/>
  </symbol>
  <symbol id="q" overflow="visible">
   <path d="m2.3438-18.562h5.3438l6.7344 12.734v-12.734h4.5469v18.562h-5.3438l-6.75-12.734v12.734h-4.5312z"/>
  </symbol>
  <symbol id="p" overflow="visible">
   <path d="m16.125-8.4688v8.4688h-4.4688v-6.4844c0-1.207-0.027344-2.0352-0.078125-2.4844-0.054687-0.45703-0.14844-0.79688-0.28125-1.0156-0.17969-0.28906-0.41797-0.51562-0.71875-0.67188-0.29297-0.16406-0.63281-0.25-1.0156-0.25-0.92969 0-1.6562 0.35938-2.1875 1.0781-0.52344 0.71875-0.78125 1.7148-0.78125 2.9844v6.8438h-4.4531v-13.922h4.4531v2.0469c0.66406-0.8125 1.375-1.4102 2.125-1.7969 0.75781-0.38281 1.5938-0.57812 2.5-0.57812 1.6133 0 2.832 0.49609 3.6562 1.4844 0.83203 0.98047 1.25 2.4141 1.25 4.2969z"/>
  </symbol>
  <symbol id="o" overflow="visible">
   <path d="m2.3438-18.562h7.9375c2.3516 0 4.1602 0.52734 5.4219 1.5781 1.2695 1.0547 1.9062 2.5469 1.9062 4.4844 0 1.9492-0.63672 3.4492-1.9062 4.5-1.2617 1.043-3.0703 1.5625-5.4219 1.5625h-3.1562v6.4375h-4.7812zm4.7812 3.4688v5.1875h2.6406c0.92578 0 1.6406-0.22266 2.1406-0.67188 0.50781-0.45703 0.76562-1.0977 0.76562-1.9219 0-0.83203-0.25781-1.4727-0.76562-1.9219-0.5-0.44531-1.2148-0.67188-2.1406-0.67188z"/>
  </symbol>
  <symbol id="n" overflow="visible">
   <path d="m2.1406-13.922h4.4531v13.672c0 1.8633-0.44922 3.2852-1.3438 4.2656-0.89844 0.98828-2.1953 1.4844-3.8906 1.4844h-2.2031v-2.9219h0.76562c0.84375 0 1.4219-0.19531 1.7344-0.57812 0.32031-0.38672 0.48438-1.1367 0.48438-2.25zm0-5.4219h4.4531v3.6406h-4.4531z"/>
  </symbol>
  <symbol id="m" overflow="visible">
   <path d="m13.391-13.484v3.625c-0.60547-0.41406-1.2148-0.72266-1.8281-0.92188-0.60547-0.19531-1.2344-0.29688-1.8906-0.29688-1.2422 0-2.2109 0.36719-2.9062 1.0938-0.6875 0.71875-1.0312 1.7305-1.0312 3.0312 0 1.3047 0.34375 2.3203 1.0312 3.0469 0.69531 0.71875 1.6641 1.0781 2.9062 1.0781 0.69531 0 1.3594-0.097656 1.9844-0.29688 0.625-0.20703 1.2031-0.51562 1.7344-0.92188v3.6406c-0.69922 0.25-1.4062 0.4375-2.125 0.5625-0.71875 0.13281-1.4375 0.20312-2.1562 0.20312-2.5117 0-4.4766-0.64062-5.8906-1.9219-1.418-1.2891-2.125-3.0859-2.125-5.3906 0-2.2891 0.70703-4.0781 2.125-5.3594 1.4141-1.2891 3.3789-1.9375 5.8906-1.9375 0.72656 0 1.4453 0.0625 2.1562 0.1875 0.70703 0.125 1.4141 0.32031 2.125 0.57812z"/>
  </symbol>
 </defs>
 <g>
  <path d="m584.18 134.91-136.44-47.855c-4.582-1.5273-13.238-4.0742-18.328-4.0742-6.6172 0-10.691 4.0742-12.219 8.6562-2.5469 2.0352-5.6016 5.0898-10.184 9.1641-1.0195 0.50781-20.363 17.816-57.527 17.816-37.164 0-56.508-17.309-57.02-17.816-4.582-4.0742-7.6367-7.1289-10.184-9.1641-1.5273-4.582-5.6016-8.6562-12.219-8.6562-5.6016 0-13.746 2.5469-18.328 4.0742l-135.92 47.855c-14.254 5.0898-22.91 20.871-19.344 35.637l16.801 68.219c3.0547 12.219 12.727 19.855 24.945 19.855 3.5625 0 7.1289-0.50781 10.184-2.0352l38.184-15.273c0.50781-0.50781 1.0195-0.50781 1.5273-0.50781 0 0 0.50781 0.50781 0.50781 1.5273l18.328 207.71c1.5273 15.273 14.762 27.492 30.035 27.492h227.56c15.273 0 28.508-12.219 30.035-27.492l18.328-207.71c0-1.0195 0.50781-1.5273 0.50781-1.5273s0.50781 0 1.5273 0.50781l38.184 15.273c3.5625 1.5273 6.6172 2.0352 10.184 2.0352 12.219 0 21.891-8.1445 24.945-19.855l16.801-68.219c2.543-15.273-6.1133-30.547-20.875-35.637zm-150.18-28.512c-1.0195 0.50781-2.5469 1.5273-4.0742 1.5273 0.51172 0 2.0391-0.50781 4.0742-1.5273zm-164.44 1.5273c-0.50781 0-1.0195 0-1.0195-0.50781 0.51172 0 0.51172 0.50781 1.0195 0.50781zm312.58 57.02-16.801 68.219c-0.50781 1.0195-1.0195 3.0547-3.0547 3.0547-0.50781 0-1.0195 0-2.0352-0.50781l-38.184-15.273c-3.0547-1.5273-6.6172-2.0352-10.184-2.0352-12.219 0-21.891 9.1641-22.91 21.891l-17.305 207.71c-0.50781 3.5625-4.0742 7.1289-7.6367 7.1289h-228.07c-3.5625 0-7.1289-3.0547-7.6367-7.1289l-18.328-207.71c-1.0195-13.238-10.691-21.891-22.91-21.891-3.5625 0-6.6172 0.50781-10.184 2.0352l-38.184 15.273c-2.5469 1.0195-4.0742 0-5.0898-2.5469l-15.777-68.215c-1.0195-3.5625 1.5273-8.1445 5.0898-9.1641l136.44-47.855c2.5469-1.0195 4.582-1.5273 6.1094-2.0352 1.5273 1.0195 5.6016 5.0898 11.711 10.691 1.0195 1.0195 25.965 23.926 72.801 23.926 46.328 0 71.273-22.91 72.289-23.926 6.1094-6.1094 10.691-9.6719 11.711-10.691 1.5273 0.50781 4.0742 1.0195 6.1094 2.0352l136.44 47.855c4.0664 1.5273 6.1055 5.6016 5.5938 9.1641z"/>
  <use x="70" y="636.363281" xlink:href="#x"/>
  <use x="88.679688" y="636.363281" xlink:href="#d"/>
  <use x="101.234375" y="636.363281" xlink:href="#a"/>
  <use x="118.496094" y="636.363281" xlink:href="#f"/>
  <use x="135.675781" y="636.363281" xlink:href="#c"/>
  <use x="147.84375" y="636.363281" xlink:href="#a"/>
  <use x="165.105469" y="636.363281" xlink:href="#l"/>
  <use x="192.1875" y="636.363281" xlink:href="#k"/>
  <use x="210.410156" y="636.363281" xlink:href="#j"/>
  <use x="235.863281" y="636.363281" xlink:href="#i"/>
  <use x="261.195312" y="636.363281" xlink:href="#h"/>
  <use x="269.921875" y="636.363281" xlink:href="#e"/>
  <use x="288.042969" y="636.363281" xlink:href="#f"/>
  <use x="305.21875" y="636.363281" xlink:href="#h"/>
  <use x="313.945312" y="636.363281" xlink:href="#w"/>
  <use x="331.53125" y="636.363281" xlink:href="#v"/>
  <use x="349.988281" y="636.363281" xlink:href="#e"/>
  <use x="368.109375" y="636.363281" xlink:href="#g"/>
  <use x="386.230469" y="636.363281" xlink:href="#u"/>
  <use x="403.160156" y="636.363281" xlink:href="#b"/>
  <use x="420.644531" y="636.363281" xlink:href="#t"/>
  <use x="70" y="661.816406" xlink:href="#s"/>
  <use x="81.074219" y="661.816406" xlink:href="#d"/>
  <use x="93.628906" y="661.816406" xlink:href="#b"/>
  <use x="111.113281" y="661.816406" xlink:href="#r"/>
  <use x="146.5" y="661.816406" xlink:href="#c"/>
  <use x="158.667969" y="661.816406" xlink:href="#e"/>
  <use x="176.789062" y="661.816406" xlink:href="#a"/>
  <use x="202.914062" y="661.816406" xlink:href="#q"/>
  <use x="224.21875" y="661.816406" xlink:href="#b"/>
  <use x="241.707031" y="661.816406" xlink:href="#g"/>
  <use x="259.828125" y="661.816406" xlink:href="#p"/>
  <use x="286.8125" y="661.816406" xlink:href="#o"/>
  <use x="305.46875" y="661.816406" xlink:href="#d"/>
  <use x="318.019531" y="661.816406" xlink:href="#b"/>
  <use x="335.507812" y="661.816406" xlink:href="#n"/>
  <use x="344.234375" y="661.816406" xlink:href="#a"/>
  <use x="361.496094" y="661.816406" xlink:href="#m"/>
  <use x="376.585937" y="661.816406" xlink:href="#c"/>
 </g>
</svg>
