<svg width="82" height="42" viewBox="0 0 82 42" fill="none" xmlns="http://www.w3.org/2000/svg">
<path d="M56.5547 13.7424H60.9425V32.0679H64.9553V9.93866H56.5547V13.7424Z" fill="white"/>
<path d="M0 0V42H82V0H0ZM32.629 22.1557L24.5704 24.2094C23.8797 24.3877 23.3468 24.9226 23.1692 25.616L21.1233 33.7057C20.8339 34.8415 19.2287 34.8415 18.9393 33.7057L16.8934 25.616C16.7158 24.9226 16.1829 24.3877 15.4922 24.2094L7.43361 22.1557C6.30213 21.8651 6.30213 20.2538 7.43361 19.9632L15.4922 17.9094C16.1829 17.7311 16.7158 17.1962 16.8934 16.5028L18.9393 8.41321C19.2287 7.27736 20.8339 7.27736 21.1233 8.41321L23.1692 16.5028C23.3468 17.1962 23.8797 17.7311 24.5704 17.9094L32.629 19.9632C33.7604 20.2538 33.7604 21.8651 32.629 22.1557ZM80.1975 40.1972H41.9572V1.80943H80.1975V40.1972Z" fill="white"/>
</svg>
