<svg width="77" height="168" viewBox="0 0 77 168" fill="none" xmlns="http://www.w3.org/2000/svg">
<path d="M23.24 160.76V155.79C23.24 151.2 22.33 147.73 20.54 145.49C18.73 143.22 15.88 142.07 12.09 142.07C8.3 142.07 5.37 143.21 3.51 145.45C1.68 147.67 0.75 151.17 0.75 155.85V166.81H32.27V160.76H23.24ZM6.3 160.76V155.98C6.3 153.19 6.72 151.16 7.54 149.94C8.34 148.76 9.68 148.18 11.64 148.18C13.77 148.18 15.33 148.7 16.29 149.71C17.25 150.73 17.74 152.59 17.74 155.22V160.76H6.3Z" fill="#F4F4F4"/>
<path d="M6.18 118.58V112.31H32.28V106.57H0.75V118.58H6.18Z" fill="#F4F4F4"/>
<path d="M18.18 53.15C20.87 53.15 23.01 53.82 24.55 55.15C26.1 56.48 26.85 58.23 26.85 60.51C26.85 62.79 26.1 64.59 24.54 65.9C23.04 67.24 20.9 67.93 18.17 67.93H0.75V73.92H18.37C22.81 73.92 26.33 72.68 28.83 70.22C31.33 67.77 32.59 64.5 32.59 60.51C32.59 56.52 31.32 53.25 28.83 50.8C26.33 48.35 22.81 47.1 18.37 47.1H0.75V53.15H18.18Z" fill="#F4F4F4"/>
<path d="M30.05 3.2C28.3 1.08 25.98 0 23.14 0C20.3 0 18.32 0.82 16.87 2.43C15.45 4 14.32 6.5 13.51 9.86C12.77 12.93 12.06 14.95 11.36 15.89C10.85 16.72 10.05 17.13 8.9 17.13C7.87 17.13 7.09 16.73 6.52 15.9C5.92 15.03 5.62 13.86 5.62 12.41C5.62 10.96 5.88 9.46 6.38 7.97C6.88 6.48 7.54 5.29 8.33 4.42L8.65 4.07L4.05 0.79L3.8 1.09C1.28 4.17 0 7.91 0 12.22C0 15.44 0.82 18.12 2.44 20.2C4.09 22.31 6.38 23.37 9.27 23.37C12.16 23.37 14.48 22.41 15.94 20.52C17.23 18.93 18.36 16.09 19.28 12.07C19.81 9.84 20.4 8.28 21.03 7.43C21.62 6.64 22.41 6.25 23.45 6.25C24.49 6.25 25.31 6.69 25.96 7.58C26.64 8.5 26.98 9.75 26.98 11.28C26.98 14.42 25.64 17.58 23 20.67L22.72 20.99L27.25 24.79L27.52 24.48C30.92 20.61 32.64 16.21 32.64 11.4C32.64 8.05 31.76 5.29 30.03 3.19L30.05 3.2Z" fill="#F4F4F4"/>
<path d="M43.7207 109.2C43.7207 113.89 45.2907 117.88 48.3907 121.04C51.4907 124.21 55.4007 125.81 60.0207 125.81C64.6407 125.81 68.5507 124.21 71.6507 121.04C74.7507 117.88 76.3207 113.9 76.3207 109.2C76.3207 104.5 74.7407 100.63 71.6207 97.43C68.5407 94.22 64.6407 92.59 60.0207 92.59C55.4007 92.59 51.5007 94.19 48.3907 97.36C45.2907 100.52 43.7207 104.51 43.7207 109.2ZM70.7007 109.2C70.7007 112.12 69.6607 114.61 67.6007 116.61C65.5407 118.61 62.9907 119.63 60.0207 119.63C57.0507 119.63 54.4907 118.61 52.4107 116.61C50.3307 114.61 49.2807 112.12 49.2807 109.2C49.2807 106.28 50.3307 103.79 52.4107 101.79C54.4907 99.79 57.0507 98.77 60.0207 98.77C62.9907 98.77 65.5407 99.79 67.6007 101.79C69.6607 103.79 70.7007 106.28 70.7007 109.2Z" fill="#F4F4F4"/>
<path d="M65.9402 52.52L45.2402 68.63V74.1H74.7802V68.42H54.5502L74.7802 52.73V46.91H45.2402V52.52H65.9402Z" fill="#F4F4F4"/>
<path d="M62.66 17.81V3.12999H57.24V17.81H49.92V1.42999H44.25V23.86H75.77V0.929993H70.03V17.81H62.66Z" fill="#F4F4F4"/>
<path d="M72.13 153.7L64.49 151.76C63.84 151.59 63.33 151.09 63.16 150.43L61.22 142.79C60.95 141.72 59.42 141.72 59.15 142.79L57.21 150.43C57.04 151.08 56.54 151.59 55.88 151.76L48.24 153.7C47.17 153.97 47.17 155.5 48.24 155.77L55.88 157.71C56.53 157.88 57.04 158.38 57.21 159.04L59.15 166.68C59.42 167.75 60.95 167.75 61.22 166.68L63.16 159.04C63.33 158.39 63.83 157.88 64.49 157.71L72.13 155.77C73.2 155.5 73.2 153.97 72.13 153.7Z" fill="#F4F4F4"/>
</svg>
