<?xml version="1.0" encoding="utf-8"?>
<!-- Svg Vector Icons : http://www.onlinewebfonts.com/icon -->
<!DOCTYPE svg PUBLIC "-//W3C//DTD SVG 1.1//EN" "http://www.w3.org/Graphics/SVG/1.1/DTD/svg11.dtd">
<svg version="1.1" xmlns="http://www.w3.org/2000/svg" xmlns:xlink="http://www.w3.org/1999/xlink" x="0px" y="0px" viewBox="0 0 1000 1000" enable-background="new 0 0 1000 1000" xml:space="preserve">
<metadata> Svg Vector Icons : http://www.onlinewebfonts.com/icon </metadata>
<g><g transform="translate(0.000000,511.000000) scale(0.100000,-0.100000)"><path d="M2509.9,3813.8c-30.2-12.6-2379.5-1552-2409.7-1579.6c-20.1-20.1,1192.3-1821.1,1219.9-1811c17.6,5,261.6,150.9,545.8,324.5l518.2,311.9v-2336.7v-2336.7h2615.9H7616v2326.7c0,1280.3,7.5,2326.7,15.1,2326.7c10.1,0,254.1-143.4,543.3-316.9c289.3-176.1,528.2-314.4,533.3-309.4c32.7,35.2,1199.8,1816.1,1192.3,1821.1c-5,2.5-545.8,362.2-1202.3,794.8l-1194.8,789.8l-744.5,7.5l-744.6,7.6l-65.4-100.6c-216.3-327-548.3-508.1-938.2-510.6c-374.8-2.5-699.3,156-915.6,455.3l-113.2,153.4l-716.9-2.5C2869.6,3828.9,2530,3821.4,2509.9,3813.8z M3873.2,3328.4c128.3-153.4,364.7-319.5,586.1-407.5c193.7-78,213.8-83,553.4-83c324.5,2.5,364.7,7.5,528.2,70.4c226.4,90.6,400,206.3,571,379.8l138.3,140.9h560.9h563.4l940.7-621.3c518.2-342.1,965.9-638.9,993.6-661.5c47.8-40.2,37.7-57.8-332-621.3l-382.3-583.5l-684.2,412.5l-684.2,410l-7.5-2487.7l-5-2487.6H5000.1H2786.6v2490.2v2490.2l-664-402.5c-364.7-221.3-674.1-402.5-686.7-402.5c-22.6,0-754.6,1079.1-767.2,1131.9c-5,15.1,435.2,319.4,973.4,676.6l981,651.5l583.6,2.5l581,2.5L3873.2,3328.4z"/></g></g>
</svg>