<?xml version="1.0" encoding="UTF-8"?><svg id="Layer_2" xmlns="http://www.w3.org/2000/svg" viewBox="0 0 167.89 329.02"><defs><style>.cls-1{fill:#fff;}</style></defs><g id="Layer_1-2"><polygon class="cls-1" points="67.09 214.77 84.7 214.77 84.7 288.01 100.8 288.01 100.8 199.55 67.09 199.55 67.09 214.77"/><path class="cls-1" d="m0,0v329.02h167.89V0H0Zm33.18,75.99l32.33-8.21c2.76-.7,4.92-2.86,5.62-5.62l8.21-32.33c1.15-4.54,7.61-4.54,8.76,0l8.21,32.33c.7,2.76,2.86,4.92,5.62,5.62l32.33,8.21c4.54,1.15,4.54,7.61,0,8.76l-32.33,8.21c-2.76.7-4.92,2.86-5.62,5.62l-8.21,32.33c-1.15,4.54-7.61,4.54-8.76,0l-8.21-32.33c-.7-2.76-2.86-4.92-5.62-5.62l-32.33-8.21c-4.54-1.15-4.54-7.61,0-8.76Zm127.49,245.8H7.22v-153.45h153.45v153.45Z"/></g></svg>