<svg width="58" height="58" viewBox="0 0 58 58" fill="none" xmlns="http://www.w3.org/2000/svg">
<path d="M55.1984 26.7293L38.4501 22.455C37.0489 22.121 35.9145 20.9857 35.5142 19.5164L31.2437 2.75313C30.6431 0.415623 27.3068 0.415623 26.7063 2.75313L22.4358 19.5164C22.1022 20.9189 20.9678 22.0543 19.4999 22.455L2.75156 26.7293C0.416145 27.3304 0.416145 30.6696 2.75156 31.2707L19.4999 35.545C20.9011 35.879 22.0355 37.0143 22.4358 38.4836L26.7063 55.2469C27.3068 57.5844 30.6431 57.5844 31.2437 55.2469L35.5142 38.4836C35.8478 37.0811 36.9821 35.9457 38.4501 35.545L55.1984 31.2707C57.6005 30.7364 57.6005 27.3304 55.1984 26.7293Z" stroke="#666666" stroke-width="2" stroke-miterlimit="10"/>
</svg>
