<svg width="1728" height="804" viewBox="0 0 1728 804" fill="none" xmlns="http://www.w3.org/2000/svg">
    <path d="M920.24 10.7895L883.764 40.7785C875.19 47.8277 861.299 47.8277 852.725 40.7785L816.249 10.7895C807.847 3.88154 796.452 0 784.567 0H0V609H1736.49V0H951.922C940.038 0 928.642 3.88154 920.24 10.7895Z" fill="white"/>
    <path d="M2032.49 567.551L1901.2 534.359C1890 531.524 1881.24 522.812 1878.39 511.661L1845.04 381.008C1840.35 362.648 1814.14 362.648 1809.45 381.008L1776.1 511.652C1773.25 522.803 1764.49 531.515 1753.29 534.35L1622 567.542C1603.55 572.204 1603.55 598.295 1622 602.957L1753.29 636.149C1764.49 638.984 1773.25 647.696 1776.1 658.847L1809.45 789.5C1814.14 807.86 1840.35 807.86 1845.04 789.5L1878.39 658.847C1881.24 647.696 1890 638.984 1901.2 636.149L2032.49 602.957C2050.94 598.295 2050.94 572.204 2032.49 567.542V567.551Z" fill="white"/>
</svg>
