<?xml version="1.0" encoding="utf-8"?>
<!-- Generator: Adobe Illustrator 19.0.0, SVG Export Plug-In . SVG Version: 6.00 Build 0)  -->
<svg version="1.1" id="Layer_1" xmlns="http://www.w3.org/2000/svg" xmlns:xlink="http://www.w3.org/1999/xlink" x="0px" y="0px"
	 viewBox="0 0 85.5 754.6" style="enable-background:new 0 0 85.5 754.6;" xml:space="preserve">
<style type="text/css">
	.st0{fill:#00F4E8;}
	.st1{fill:#222;}
</style>
<g>
	<g>
		<g>
			<path class="st0" d="M46.2,489.9l6.4-25.3c0.5-2.2,2.2-3.9,4.4-4.4l25.3-6.4c3.6-0.9,3.6-6,0-6.9L57,440.4
				c-2.2-0.5-3.9-2.2-4.4-4.4l-6.4-25.3c-0.9-3.6-6-3.6-6.9,0L32.9,436c-0.5,2.2-2.2,3.9-4.4,4.4l-25.3,6.4c-3.6,0.9-3.6,6,0,6.9
				l25.3,6.4c2.2,0.5,3.9,2.2,4.4,4.4l6.4,25.3C40.2,493.4,45.3,493.4,46.2,489.9"/>
		</g>
	</g>
	<path class="st1" d="M26.9,44.9c1.7,1.8,3.9,3.2,6.5,4.2c2.6,1,5.6,1.5,9,1.5c3.4,0,6.3-0.5,8.9-1.5c2.6-1,4.7-2.4,6.5-4.2
		c1.7-1.8,3-3.9,3.9-6.3c0.9-2.4,2.3-5.1,2.3-8v-30H52.1v29.6c0,1.5-0.2,2.9-0.7,4.2c-0.5,1.3-1.2,2.4-2,3.3
		c-0.9,0.9-1.9,1.7-3.1,2.2c-1.2,0.5-2.5,0.8-3.9,0.8c-1.4,0-2.7-0.3-4-0.8c-1.2-0.5-2.3-1.3-3.1-2.2c-0.9-0.9-1.6-2.1-2-3.3
		c-0.5-1.3-0.7-2.7-0.7-4.2V0.5H21.7v30c0,2.9,0.4,5.6,1.3,8C23.9,41,25.2,43.1,26.9,44.9z"/>
	<path class="st1" d="M55.6,58.4C54,57.3,52,56.5,49.7,56c-2.3-0.5-4.6-0.7-7.2-0.7H24.4v48.9h10.8v-19h7.9c2.6,0,5-0.2,7.2-0.7
		s4.1-1.3,5.7-2.4c1.6-1.1,2.9-2.7,3.8-4.6c0.9-1.9,1.4-4.3,1.4-7.2c0-2.9-0.5-5.3-1.5-7.2C58.7,61,57.3,59.5,55.6,58.4z M49.3,73
		c-0.4,0.8-1,1.4-1.7,1.8c-0.7,0.4-1.5,0.7-2.4,0.9c-0.9,0.2-1.8,0.3-2.8,0.3h-7.2V64.4h5.5c1,0,2.1,0.1,3.2,0.2
		c1.1,0.1,2.1,0.4,3,0.8c0.9,0.4,1.6,1,2.2,1.8c0.6,0.8,0.9,1.8,0.9,3C50,71.3,49.7,72.3,49.3,73z"/>
	<path class="st1" d="M28.7,152.7c2.3,2.2,5.1,3.9,8.3,5.1c3.2,1.2,6.7,1.8,10.6,1.8c3.4,0,6.6-0.7,9.8-2.1s5.8-3.5,7.9-6.4l-10-6.7
		c-1.1,1.7-2.5,2.9-4.2,3.9c-1.7,0.9-3.7,1.4-5.9,1.4c-1.9,0-3.7-0.4-5.4-1.2c-1.7-0.8-3.1-1.9-4.4-3.3c-1.2-1.4-2.2-3.1-2.9-5
		c-0.7-1.9-1.1-4-1.1-6.3c0-2.3,0.4-4.3,1.1-6.3c0.7-1.9,1.7-3.6,3-5c1.3-1.4,2.8-2.5,4.5-3.3c1.7-0.8,3.6-1.2,5.6-1.2
		c2,0,3.8,0.3,5.3,1c1.5,0.7,2.8,1.7,3.9,3l9.3-6.8c-1.1-1.3-3.3-2.5-4.6-3.4c-1.3-0.9-2.7-1.7-4.2-2.2c-1.4-0.6-2.9-1-4.4-1.2
		c-1.5-0.3-2.9-0.4-4.3-0.4c-3.8,0-7.3,0.6-10.6,1.8c-3.2,1.2-6,2.9-8.3,5.1c-2.3,2.2-4.2,4.9-5.5,8.1c-1.3,3.2-2,6.7-2,10.6
		c0,3.9,0.7,7.5,2,10.6C23.5,147.7,26.4,150.4,28.7,152.7z"/>
	<path class="st1" d="M23.9,206.9c2.3,2.2,5.1,3.9,8.3,5.1c3.2,1.2,6.7,1.8,10.6,1.8c3.8,0,7.3-0.6,10.6-1.8c3.2-1.2,6-2.9,8.3-5.1
		c2.3-2.2,4.2-4.9,5.5-8.1c1.3-3.2,2-6.7,2-10.6c0-3.9-0.7-7.5-2-10.6c-1.3-3.2-3.1-5.9-5.5-8.1c-2.3-2.2-5.1-3.9-8.3-5.1
		c-3.2-1.2-6.7-1.8-10.6-1.8c-3.8,0-7.3,0.6-10.6,1.8c-3.2,1.2-6,2.9-8.3,5.1c-2.3,2.2-4.2,4.9-5.5,8.1c-1.3,3.2-2,6.7-2,10.6
		c0,3.9,0.7,7.5,2,10.6C19.7,201.9,21.5,204.6,23.9,206.9z M28.7,181.9c0.7-1.9,1.7-3.6,3.1-5c1.3-1.4,2.9-2.5,4.8-3.3
		c1.9-0.8,3.9-1.2,6.2-1.2c2.3,0,4.4,0.4,6.2,1.2c1.9,0.8,3.5,1.9,4.8,3.3c1.3,1.4,2.4,3.1,3.1,5c0.7,1.9,1.1,4,1.1,6.3
		c0,2.3-0.4,4.4-1.1,6.3c-0.7,1.9-1.7,3.6-3.1,5c-1.3,1.4-2.9,2.5-4.8,3.3c-1.9,0.8-3.9,1.2-6.2,1.2c-2.3,0-4.4-0.4-6.2-1.2
		c-1.9-0.8-3.5-1.9-4.8-3.3c-1.3-1.4-2.4-3.1-3.1-5c-0.7-1.9-1.1-4-1.1-6.3C27.6,185.9,28,183.8,28.7,181.9z"/>
	<rect x="37.4" y="272.1" class="st1" width="10.8" height="48.9"/>
	<polygon class="st1" points="19.6,326.3 19.6,375.2 30.4,375.2 30.4,340.4 30.5,340.4 51.8,375.2 65.9,375.2 65.9,326.3 
		55.2,326.3 55.2,360.3 55,360.3 34.3,326.3 	"/>
	<path class="st1" d="M66.2,400.4H47.1v9.9h8.8v7.9c-1,0.6-2.4,1.1-4.1,1.6c-1.7,0.5-3.7,0.8-6.1,0.8c-2.3,0-4.4-0.4-6.2-1.2
		c-1.9-0.8-3.5-1.9-4.8-3.3c-1.3-1.4-2.4-3.1-3.1-5c-0.7-1.9-1.1-4-1.1-6.3c0-2.3,0.4-4.3,1.1-6.3c0.7-1.9,1.7-3.6,3.1-5
		c1.3-1.4,2.9-2.5,4.8-3.3c1.9-0.8,3.9-1.2,6.2-1.2c2.8,0,5.1,0.4,6.9,1.2c1.8,0.8,3.5,1.9,5,3.4l7.6-8.3c-2.5-2.3-5.4-3.9-8.7-4.9
		c-3.3-0.9-6.9-1.4-10.8-1.4c-3.8,0-7.3,0.6-10.6,1.8c-3.2,1.2-6,2.9-8.3,5.1c-2.3,2.2-4.2,4.9-5.5,8.1c-1.3,3.2-2,6.7-2,10.6
		c0,3.9,0.7,7.5,2,10.6c1.3,3.2,3.1,5.9,5.5,8.1c2.3,2.2,5.1,3.9,8.3,5.1c3.2,1.2,6.7,1.8,10.6,1.8c3.6,0,7.1-0.4,10.6-1.1
		c3.4-0.7,6.8-1.9,9.9-3.6V400.4z"/>
	<path class="st1" d="M47.9,517.1c-0.8,0.4-1.7,0.8-2.8,1c-1,0.2-2,0.3-3,0.3c-2,0-4-0.4-5.9-1.3c-1.9-0.9-3.5-2.1-4.8-3.7l-8.7,9.1
		c2.7,2.3,5.6,4,8.7,5.1c3.1,1,6.5,1.6,10.1,1.6c2.9,0,5.6-0.3,8.2-1c2.6-0.7,4.9-1.8,6.9-3.2c2-1.4,3.5-3.2,4.7-5.4
		c1.2-2.2,1.7-4.7,1.7-7.7c0-3.1-0.6-5.5-1.9-7.4c-1.3-1.8-2.9-3.3-4.8-4.4c-1.9-1.1-4-1.9-6.2-2.5c-2.2-0.6-4.3-1.2-6.2-1.8
		c-1.9-0.6-3.5-1.3-4.8-2.2c-1.3-0.8-1.9-2.1-1.9-3.6c0-1,0.3-1.8,0.8-2.5c0.5-0.7,1.2-1.3,2-1.7c0.8-0.4,1.7-0.7,2.7-0.9
		c0.9-0.2,1.9-0.3,2.8-0.3c1.5,0,3.1,0.3,4.8,0.9c1.7,0.6,3.1,1.5,4.1,2.6l8.4-8.7c-2.4-2-5-3.4-8-4.2c-2.9-0.8-6-1.3-9.1-1.3
		c-2.7,0-5.4,0.4-8,1.1c-2.6,0.7-4.8,1.8-6.8,3.2c-2,1.4-3.5,3.2-4.7,5.4c-1.2,2.1-1.8,4.6-1.8,7.4c0,2.9,0.6,5.3,1.9,7.1
		c1.3,1.8,2.9,3.2,4.8,4.3c1.9,1.1,4,2,6.3,2.6c2.3,0.6,4.4,1.3,6.3,1.9c1.9,0.6,3.6,1.4,4.8,2.3c1.3,0.9,1.9,2.2,1.9,3.8
		c0,0.9-0.3,1.8-0.7,2.5C49.4,516.1,48.7,516.6,47.9,517.1z"/>
	<polygon class="st1" points="64,582.2 64,533.3 53.2,533.3 53.2,551.6 32.3,551.6 32.3,533.3 21.6,533.3 21.6,582.2 32.3,582.2 
		32.3,561.1 53.2,561.1 53.2,582.2 	"/>
	<path class="st1" d="M23.9,632c2.3,2.2,5.1,3.9,8.3,5.1c3.2,1.2,6.7,1.8,10.6,1.8c3.8,0,7.3-0.6,10.6-1.8c3.2-1.2,6-2.9,8.3-5.1
		c2.3-2.2,4.2-4.9,5.5-8.1c1.3-3.2,2-6.7,2-10.6c0-3.9-0.7-7.5-2-10.6c-1.3-3.2-3.1-5.9-5.5-8.1c-2.3-2.2-5.1-3.9-8.3-5.1
		c-3.2-1.2-6.7-1.8-10.6-1.8c-3.8,0-7.3,0.6-10.6,1.8c-3.2,1.2-6,2.9-8.3,5.1c-2.3,2.2-4.2,4.9-5.5,8.1c-1.3,3.2-2,6.7-2,10.6
		c0,3.9,0.7,7.5,2,10.6C19.7,627.1,21.5,629.8,23.9,632z M28.7,607c0.7-1.9,1.7-3.6,3.1-5c1.3-1.4,2.9-2.5,4.8-3.3
		c1.9-0.8,3.9-1.2,6.2-1.2c2.3,0,4.4,0.4,6.2,1.2c1.9,0.8,3.5,1.9,4.8,3.3c1.3,1.4,2.4,3.1,3.1,5c0.7,1.9,1.1,4,1.1,6.3
		c0,2.3-0.4,4.4-1.1,6.3c-0.7,1.9-1.7,3.6-3.1,5c-1.3,1.4-2.9,2.5-4.8,3.3c-1.9,0.8-3.9,1.2-6.2,1.2c-2.3,0-4.4-0.4-6.2-1.2
		c-1.9-0.8-3.5-1.9-4.8-3.3c-1.3-1.4-2.4-3.1-3.1-5c-0.7-1.9-1.1-4-1.1-6.3C27.6,611.1,28,609,28.7,607z"/>
	<path class="st1" d="M56.2,725.1c-1.9-1.1-4-1.9-6.2-2.5c-2.2-0.6-4.3-1.2-6.2-1.8c-1.9-0.6-3.5-1.3-4.8-2.2
		c-1.3-0.8-1.9-2.1-1.9-3.6c0-1,0.3-1.8,0.8-2.5c0.5-0.7,1.2-1.3,2-1.7c0.8-0.4,1.7-0.7,2.7-0.9c0.9-0.2,1.9-0.3,2.8-0.3
		c1.5,0,3.1,0.3,4.8,0.9c1.7,0.6,3.1,1.5,4.1,2.6l8.4-8.7c-2.4-2-5-3.4-8-4.2c-2.9-0.8-6-1.3-9.1-1.3c-2.7,0-5.4,0.4-8,1.1
		c-2.6,0.7-4.8,1.8-6.8,3.2c-2,1.4-3.5,3.2-4.7,5.4c-1.2,2.1-1.8,4.6-1.8,7.4c0,2.9,0.6,5.3,1.9,7.1c1.3,1.8,2.9,3.2,4.8,4.3
		c1.9,1.1,4,2,6.3,2.6c2.3,0.6,4.4,1.3,6.3,1.9c1.9,0.6,3.6,1.4,4.8,2.3c1.3,0.9,1.9,2.2,1.9,3.8c0,0.9-0.3,1.8-0.7,2.5
		c-0.5,0.7-1.2,1.3-2,1.7c-0.8,0.4-1.7,0.8-2.8,1c-1,0.2-2,0.3-3,0.3c-2,0-4-0.4-5.9-1.3c-1.9-0.9-3.5-2.1-4.8-3.7l-8.7,9.1
		c2.7,2.3,5.6,4,8.7,5.1c3.1,1,6.5,1.6,10.1,1.6c2.9,0,5.6-0.3,8.2-1c2.6-0.7,4.9-1.8,6.9-3.2c2-1.4,3.5-3.2,4.7-5.4
		c1.2-2.2,1.7-4.7,1.7-7.7c0-3.1-0.6-5.5-1.9-7.4C59.8,727.6,58.2,726.2,56.2,725.1z"/>
	<polygon class="st1" points="39.3,693.4 42.7,682.9 46.1,693.4 55.7,693.4 69.9,644.6 59,644.6 50.8,676.7 50.7,676.7 47.9,667.8 
		47.8,667.8 44.6,657.3 41.1,657.3 37.6,668.8 35.3,675.9 35.1,675.9 27.3,644.6 15.6,644.6 30.1,693.4 	"/>
	<polygon class="st1" points="68.5,217.7 52.3,217.7 42.7,244.5 33.3,217.9 17.1,217.9 17.1,266.8 27.8,266.8 27.8,229.3 28,229.3 
		40.2,266.3 44.8,266.3 57.6,229.1 57.7,229.1 57.7,266.5 68.5,266.5 	"/>
</g>
</svg>
