<svg width="599" height="819" viewBox="0 0 599 819" fill="none" xmlns="http://www.w3.org/2000/svg">
<g clip-path="url(#clip0_1565_32)">
<path d="M165.499 618.566L114.357 605.514C110.078 604.495 106.614 601.028 105.391 596.541L92.3512 545.353C90.5174 538.216 80.3298 538.216 78.496 545.353L65.4558 596.541C64.437 600.824 60.9732 604.291 56.4906 605.514L5.34853 618.566C-1.78284 620.402 -1.78284 630.598 5.34853 632.434L56.4906 645.486C60.7694 646.505 64.2332 649.972 65.4558 654.459L78.496 705.647C80.3298 712.784 90.5174 712.784 92.3512 705.647L105.391 654.459C106.41 650.176 109.874 646.709 114.357 645.486L165.499 632.434C172.834 630.802 172.834 620.402 165.499 618.566Z" stroke="#B8DDE2" stroke-width="2" stroke-miterlimit="10"/>
<path d="M453.499 618.566L402.357 605.514C398.078 604.495 394.614 601.028 393.391 596.541L380.351 545.353C378.517 538.216 368.33 538.216 366.496 545.353L353.456 596.541C352.437 600.824 348.973 604.291 344.491 605.514L293.349 618.566C286.217 620.402 286.217 630.598 293.349 632.434L344.491 645.486C348.769 646.505 352.233 649.972 353.456 654.459L366.496 705.647C368.33 712.784 378.517 712.784 380.351 705.647L393.391 654.459C394.41 650.176 397.874 646.709 402.357 645.486L453.499 632.434C460.834 630.802 460.834 620.402 453.499 618.566Z" stroke="#B8DDE2" stroke-width="2" stroke-miterlimit="10"/>
<path d="M165.499 402.566L114.357 389.514C110.078 388.495 106.614 385.028 105.391 380.541L92.3512 329.353C90.5174 322.216 80.3298 322.216 78.496 329.353L65.4558 380.541C64.437 384.824 60.9732 388.291 56.4906 389.514L5.34853 402.566C-1.78284 404.402 -1.78284 414.598 5.34853 416.434L56.4906 429.486C60.7694 430.505 64.2332 433.972 65.4558 438.459L78.496 489.647C80.3298 496.784 90.5174 496.784 92.3512 489.647L105.391 438.459C106.41 434.176 109.874 430.709 114.357 429.486L165.499 416.434C172.834 414.802 172.834 404.402 165.499 402.566Z" stroke="#B8DDE2" stroke-width="2" stroke-miterlimit="10"/>
<path d="M453.499 402.566L402.357 389.514C398.078 388.495 394.614 385.028 393.391 380.541L380.351 329.353C378.517 322.216 368.33 322.216 366.496 329.353L353.456 380.541C352.437 384.824 348.973 388.291 344.491 389.514L293.349 402.566C286.217 404.402 286.217 414.598 293.349 416.434L344.491 429.486C348.769 430.505 352.233 433.972 353.456 438.459L366.496 489.647C368.33 496.784 378.517 496.784 380.351 489.647L393.391 438.459C394.41 434.176 397.874 430.709 402.357 429.486L453.499 416.434C460.834 414.802 460.834 404.402 453.499 402.566Z" stroke="#B8DDE2" stroke-width="2" stroke-miterlimit="10"/>
<path d="M453.499 186.566L402.357 173.514C398.078 172.495 394.614 169.028 393.391 164.541L380.351 113.353C378.517 106.216 368.33 106.216 366.496 113.353L353.456 164.541C352.437 168.824 348.973 172.291 344.491 173.514L293.349 186.566C286.217 188.402 286.217 198.598 293.349 200.434L344.491 213.486C348.769 214.505 352.233 217.972 353.456 222.459L366.496 273.647C368.33 280.784 378.517 280.784 380.351 273.647L393.391 222.459C394.41 218.176 397.874 214.709 402.357 213.486L453.499 200.434C460.834 198.802 460.834 188.402 453.499 186.566Z" stroke="#B8DDE2" stroke-width="2" stroke-miterlimit="10"/>
<path d="M305.499 726.566L254.357 713.514C250.078 712.495 246.614 709.028 245.391 704.541L232.351 653.353C230.517 646.216 220.33 646.216 218.496 653.353L205.456 704.541C204.437 708.824 200.973 712.291 196.491 713.514L145.349 726.566C138.217 728.402 138.217 738.598 145.349 740.434L196.491 753.486C200.769 754.505 204.233 757.972 205.456 762.459L218.496 813.647C220.33 820.784 230.517 820.784 232.351 813.647L245.391 762.459C246.41 758.176 249.874 754.709 254.357 753.486L305.499 740.434C312.834 738.802 312.834 728.402 305.499 726.566Z" stroke="#B8DDE2" stroke-width="2" stroke-miterlimit="10"/>
<path d="M593.499 726.566L542.357 713.514C538.078 712.495 534.614 709.028 533.391 704.541L520.351 653.353C518.517 646.216 508.33 646.216 506.496 653.353L493.456 704.541C492.437 708.824 488.973 712.291 484.491 713.514L433.349 726.566C426.217 728.402 426.217 738.598 433.349 740.434L484.491 753.486C488.769 754.505 492.233 757.972 493.456 762.459L506.496 813.647C508.33 820.784 518.517 820.784 520.351 813.647L533.391 762.459C534.41 758.176 537.874 754.709 542.357 753.486L593.499 740.434C600.834 738.802 600.834 728.402 593.499 726.566Z" stroke="#B8DDE2" stroke-width="2" stroke-miterlimit="10"/>
<path d="M305.499 510.566L254.357 497.514C250.078 496.495 246.614 493.028 245.391 488.541L232.351 437.353C230.517 430.216 220.33 430.216 218.496 437.353L205.456 488.541C204.437 492.824 200.973 496.291 196.491 497.514L145.349 510.566C138.217 512.402 138.217 522.598 145.349 524.434L196.491 537.486C200.769 538.505 204.233 541.972 205.456 546.459L218.496 597.647C220.33 604.784 230.517 604.784 232.351 597.647L245.391 546.459C246.41 542.176 249.874 538.709 254.357 537.486L305.499 524.434C312.834 522.802 312.834 512.402 305.499 510.566Z" stroke="#B8DDE2" stroke-width="2" stroke-miterlimit="10"/>
<path d="M593.499 510.566L542.357 497.514C538.078 496.495 534.614 493.028 533.391 488.541L520.351 437.353C518.517 430.216 508.33 430.216 506.496 437.353L493.456 488.541C492.437 492.824 488.973 496.291 484.491 497.514L433.349 510.566C426.217 512.402 426.217 522.598 433.349 524.434L484.491 537.486C488.769 538.505 492.233 541.972 493.456 546.459L506.496 597.647C508.33 604.784 518.517 604.784 520.351 597.647L533.391 546.459C534.41 542.176 537.874 538.709 542.357 537.486L593.499 524.434C600.834 522.802 600.834 512.402 593.499 510.566Z" stroke="#B8DDE2" stroke-width="2" stroke-miterlimit="10"/>
<path d="M305.499 294.566L254.357 281.514C250.078 280.495 246.614 277.028 245.391 272.541L232.351 221.353C230.517 214.216 220.33 214.216 218.496 221.353L205.456 272.541C204.437 276.824 200.973 280.291 196.491 281.514L145.349 294.566C138.217 296.402 138.217 306.598 145.349 308.434L196.491 321.486C200.769 322.505 204.233 325.972 205.456 330.459L218.496 381.647C220.33 388.784 230.517 388.784 232.351 381.647L245.391 330.459C246.41 326.176 249.874 322.709 254.357 321.486L305.499 308.434C312.834 306.802 312.834 296.402 305.499 294.566Z" stroke="#B8DDE2" stroke-width="2" stroke-miterlimit="10"/>
<path d="M593.499 294.566L542.357 281.514C538.078 280.495 534.614 277.028 533.391 272.541L520.351 221.353C518.517 214.216 508.33 214.216 506.496 221.353L493.456 272.541C492.437 276.824 488.973 280.291 484.491 281.514L433.349 294.566C426.217 296.402 426.217 306.598 433.349 308.434L484.491 321.486C488.769 322.505 492.233 325.972 493.456 330.459L506.496 381.647C508.33 388.784 518.517 388.784 520.351 381.647L533.391 330.459C534.41 326.176 537.874 322.709 542.357 321.486L593.499 308.434C600.834 306.802 600.834 296.402 593.499 294.566Z" stroke="#B8DDE2" stroke-width="2" stroke-miterlimit="10"/>
<path d="M305.499 78.5662L254.357 65.5143C250.078 64.4946 246.614 61.0277 245.391 56.5411L232.351 5.35331C230.517 -1.78444 220.33 -1.78444 218.496 5.35331L205.456 56.5411C204.437 60.8238 200.973 64.2907 196.491 65.5143L145.349 78.5662C138.217 80.4016 138.217 90.5984 145.349 92.4338L196.491 105.486C200.769 106.505 204.233 109.972 205.456 114.459L218.496 165.647C220.33 172.784 230.517 172.784 232.351 165.647L245.391 114.459C246.41 110.176 249.874 106.709 254.357 105.486L305.499 92.4338C312.834 90.8023 312.834 80.4016 305.499 78.5662Z" stroke="#B8DDE2" stroke-width="2" stroke-miterlimit="10"/>
<path d="M593.499 78.5662L542.357 65.5143C538.078 64.4946 534.614 61.0277 533.391 56.5411L520.351 5.35331C518.517 -1.78444 508.33 -1.78444 506.496 5.35331L493.456 56.5411C492.437 60.8238 488.973 64.2907 484.491 65.5143L433.349 78.5662C426.217 80.4016 426.217 90.5984 433.349 92.4338L484.491 105.486C488.769 106.505 492.233 109.972 493.456 114.459L506.496 165.647C508.33 172.784 518.517 172.784 520.351 165.647L533.391 114.459C534.41 110.176 537.874 106.709 542.357 105.486L593.499 92.4338C600.834 90.8023 600.834 80.4016 593.499 78.5662Z" stroke="#B8DDE2" stroke-width="2" stroke-miterlimit="10"/>
</g>
<defs>
<clipPath id="clip0_1565_32">
<rect width="599" height="819" fill="white"/>
</clipPath>
</defs>
</svg>
