<svg width="750" height="1030" viewBox="0 0 750 1030" fill="none" xmlns="http://www.w3.org/2000/svg">
<mask id="mask0_53_71" style="mask-type:alpha" maskUnits="userSpaceOnUse" x="0" y="0" width="1032" height="1032">
<g opacity="0.3">
<path d="M515.842 805.131C530.727 805.131 544.898 800.569 556.825 791.945C569.886 782.498 579.311 768.54 583.35 752.625L611.156 643.192C615.158 627.439 627.453 615.144 643.207 611.141L752.64 583.336C768.547 579.296 782.513 569.871 791.96 556.811C800.583 544.884 805.145 530.713 805.145 515.828C805.145 500.943 800.583 486.772 791.96 474.844C782.513 461.784 768.555 452.359 752.64 448.319L643.207 420.514C627.453 416.511 615.158 404.217 611.156 388.463L583.358 279.03C579.318 263.123 569.893 249.157 556.833 239.71C544.906 231.086 530.735 226.525 515.85 226.525C500.965 226.525 486.794 231.086 474.866 239.71C461.806 249.157 452.381 263.115 448.341 279.03L420.544 388.463C416.541 404.217 404.246 416.511 388.493 420.514L279.06 448.319C263.152 452.359 249.187 461.777 239.739 474.844C231.116 486.772 226.554 500.943 226.554 515.828C226.554 530.713 231.116 544.884 239.739 556.811C249.187 569.871 263.145 579.296 279.06 583.336L388.493 611.134C404.246 615.136 416.541 627.431 420.544 643.185L448.341 752.618C452.381 768.525 461.806 782.491 474.866 791.938C486.794 800.561 500.965 805.123 515.85 805.123L515.842 805.131Z" stroke="#CACACA" stroke-width="2.94314" stroke-miterlimit="10"/>
<path d="M515.842 879.975C546.576 879.975 575.912 870.505 600.678 852.596C627.924 832.892 647.533 803.939 655.892 771.056L676.589 689.583C678.215 683.189 683.204 678.201 689.598 676.574L771.071 655.877C803.953 647.526 832.907 627.917 852.611 600.664C870.52 575.89 879.989 546.554 879.989 515.828C879.989 485.101 870.52 455.758 852.611 430.992C832.907 403.738 803.946 384.137 771.071 375.778L689.598 355.081C683.204 353.455 678.215 348.466 676.589 342.072L655.892 260.599C647.54 227.717 627.932 198.763 600.678 179.059C575.904 161.15 546.569 151.681 515.842 151.681C485.116 151.681 455.773 161.15 431.006 179.059C403.753 198.763 384.144 227.724 375.793 260.599L355.096 342.072C353.469 348.466 348.481 353.455 342.087 355.081L260.613 375.778C227.739 384.13 198.778 403.738 179.074 430.992C161.165 455.758 151.695 485.101 151.695 515.828C151.695 546.554 161.165 575.897 179.074 600.664C198.778 627.917 227.739 647.518 260.613 655.877L342.087 676.574C348.481 678.201 353.469 683.189 355.096 689.583L375.793 771.056C384.144 803.939 403.753 832.892 431.006 852.596C455.78 870.505 485.116 879.975 515.842 879.975Z" stroke="#CACACA" stroke-width="2.94314" stroke-miterlimit="10"/>
<path d="M515.842 954.826C562.418 954.826 606.918 940.449 644.538 913.254C685.978 883.293 715.77 839.345 728.433 789.495L738.579 749.557C739.948 744.164 744.164 739.948 749.557 738.579L789.495 728.433C839.345 715.77 883.3 685.97 913.262 644.538C940.456 606.925 954.833 562.425 954.833 515.842C954.833 469.26 940.456 424.76 913.262 387.146C883.3 345.707 839.345 315.915 789.495 303.252L749.557 293.106C744.164 291.737 739.948 287.521 738.579 282.128L728.433 242.189C715.77 192.34 685.97 148.384 644.538 118.423C606.925 91.2286 562.418 76.8513 515.842 76.8513C469.267 76.8513 424.767 91.2286 387.146 118.423C345.707 148.384 315.908 192.34 303.245 242.189L293.098 282.128C291.73 287.521 287.514 291.737 282.12 293.106L242.182 303.252C192.333 315.915 148.384 345.707 118.416 387.154C91.2212 424.767 76.844 469.267 76.844 515.842C76.844 562.418 91.2212 606.918 118.416 644.538C148.377 685.978 192.333 715.77 242.182 728.44L282.12 738.586C287.514 739.955 291.73 744.171 293.098 749.564L303.245 789.503C315.908 839.352 345.707 883.308 387.146 913.269C424.76 940.464 469.26 954.841 515.842 954.841V954.826Z" stroke="#CACACA" stroke-width="2.94314" stroke-miterlimit="10"/>
<path d="M515.842 1029.67C578.266 1029.67 637.931 1010.39 688.391 973.905C744.016 933.687 783.999 874.743 800.974 807.919C801.842 804.498 804.505 801.834 807.919 800.966C874.736 783.992 933.687 744.009 973.905 688.384C1010.39 637.931 1029.67 578.259 1029.67 515.835C1029.67 453.411 1010.39 393.739 973.905 343.286C933.687 287.661 874.736 247.678 807.912 230.704C804.498 229.836 801.834 227.172 800.966 223.758C783.992 156.934 744.009 97.9904 688.384 57.7651C637.924 21.2849 578.259 2 515.835 2C453.411 2 393.746 21.2849 343.286 57.7651C287.661 97.9904 247.671 156.934 230.696 223.751C229.828 227.165 227.165 229.828 223.751 230.696C156.934 247.671 97.9831 287.654 57.7651 343.286C21.2849 393.739 2 453.404 2 515.835C2 578.266 21.2849 637.924 57.7651 688.384C97.9904 744.009 156.934 783.992 223.751 800.966C227.165 801.834 229.828 804.498 230.696 807.912C247.671 874.736 287.654 933.68 343.286 973.905C393.746 1010.39 453.411 1029.67 515.835 1029.67H515.842Z" stroke="#CACACA" stroke-width="2.94314" stroke-miterlimit="10"/>
<path d="M326.856 532.221L447.746 562.933C458.069 565.552 466.125 573.616 468.745 583.932L499.456 704.821C503.776 721.81 527.909 721.81 532.221 704.821L562.933 583.932C565.552 573.609 573.616 565.552 583.932 562.933L704.821 532.221C721.811 527.902 721.811 503.768 704.821 499.456L583.932 468.745C573.609 466.125 565.552 458.061 562.933 447.746L532.221 326.856C527.902 309.867 503.768 309.867 499.456 326.856L468.745 447.746C466.125 458.069 458.061 466.125 447.746 468.745L326.856 499.456C309.867 503.776 309.867 527.909 326.856 532.221V532.221Z" stroke="#CACACA" stroke-width="2.94314" stroke-miterlimit="10"/>
</g>
</mask>
<g mask="url(#mask0_53_71)">
<rect x="-6.09363" y="-14.1873" width="756.386" height="529.765" fill="#CECECE"/>
</g>
</svg>
