<svg width="804" height="466" viewBox="0 0 804 466" fill="none" xmlns="http://www.w3.org/2000/svg">
<g clip-path="url(#clip0_1565_33)">
<mask id="mask0_1565_33" style="mask-type:alpha" maskUnits="userSpaceOnUse" x="-298" y="-639" width="1105" height="1105">
<path d="M254.5 222.739C425.288 222.739 563.739 84.2878 563.739 -86.5C563.739 -257.288 425.288 -395.739 254.5 -395.739C83.7126 -395.739 -54.7383 -257.288 -54.7383 -86.5C-54.7383 84.2878 83.7126 222.739 254.5 222.739Z" stroke="#616161" stroke-miterlimit="10"/>
<path d="M254.5 146.437C383.147 146.437 487.437 42.1476 487.437 -86.5C487.437 -215.148 383.147 -319.437 254.5 -319.437C125.852 -319.437 21.5625 -215.148 21.5625 -86.5C21.5625 42.1476 125.852 146.437 254.5 146.437Z" stroke="#616161" stroke-miterlimit="10"/>
<path d="M254.501 301.46C469.211 301.46 643.267 127.403 643.267 -87.3065C643.267 -302.016 469.211 -476.073 254.501 -476.073C39.791 -476.073 -134.266 -302.016 -134.266 -87.3065C-134.266 127.403 39.791 301.46 254.501 301.46Z" stroke="#616161" stroke-miterlimit="10"/>
<path d="M254.5 381.008C513.143 381.008 722.814 171.336 722.814 -87.3065C722.814 -345.949 513.143 -555.621 254.5 -555.621C-4.14296 -555.621 -213.814 -345.949 -213.814 -87.3065C-213.814 171.336 -4.14296 381.008 254.5 381.008Z" stroke="#616161" stroke-miterlimit="10"/>
<path d="M254.501 462.975C557.968 462.975 803.976 216.967 803.976 -86.5C803.976 -389.967 557.968 -635.975 254.501 -635.975C-48.9661 -635.975 -294.975 -389.967 -294.975 -86.5C-294.975 216.967 -48.9661 462.975 254.501 462.975Z" stroke="#616161" stroke-miterlimit="10"/>
</mask>
<g mask="url(#mask0_1565_33)">
<rect x="0.269531" y="-0.422119" width="864.783" height="547.495" fill="#D9D9D9"/>
</g>
</g>
<defs>
<clipPath id="clip0_1565_33">
<rect width="804" height="466" fill="white"/>
</clipPath>
</defs>
</svg>
