<svg width="582" height="288" viewBox="0 0 582 288" fill="none" xmlns="http://www.w3.org/2000/svg">
<path d="M426.473 124.038L345.574 103.485C338.669 101.729 333.274 96.3346 331.519 89.4297L310.965 8.52667C308.078 -2.84222 291.922 -2.84222 289.035 8.52667L268.481 89.4241C266.726 96.3291 261.331 101.724 254.426 103.479L173.527 124.032C162.158 126.919 162.158 143.075 173.527 145.962L254.426 166.515C261.331 168.271 266.726 173.665 268.481 180.57L289.035 261.473C291.922 272.842 308.078 272.842 310.965 261.473L331.519 180.57C333.274 173.665 338.669 168.271 345.574 166.515L426.473 145.962C437.842 143.075 437.842 126.919 426.473 124.032V124.038Z" fill="white"/>
<path d="M2.14109 29.5332L2.07827 29.5492C0.619972 29.9782 0.640873 32.0859 2.14096 32.4668L2.14109 32.4668L20.1187 37.0342L20.1188 37.0342C22.0084 37.5146 23.4846 38.9907 23.965 40.8803L23.9651 40.8805L28.5325 58.8589L28.5326 58.8591C28.9188 60.3803 31.0812 60.3803 31.4674 58.8591L31.4675 58.8589L36.0349 40.8805L36.035 40.8803C36.5154 38.9907 37.9916 37.5146 39.8812 37.0342L39.8813 37.0342L57.8589 32.4668L57.859 32.4668C59.3803 32.0805 59.3803 29.9183 57.859 29.532L57.8589 29.532L39.8813 24.9646L39.8812 24.9645C37.9916 24.4841 36.5154 23.008 36.035 21.1184L36.0349 21.1183L31.4675 3.14106L31.4674 3.14093C31.0812 1.61969 28.9188 1.61969 28.5326 3.14093L28.5325 3.14104L23.9651 21.1195L23.965 21.1197C23.4846 23.0093 22.0084 24.4854 20.1188 24.9658L20.1187 24.9658L2.14109 29.5332Z" stroke="white" stroke-width="2"/>
<path d="M524.141 59.5332L524.078 59.5492C522.62 59.9782 522.641 62.0859 524.141 62.4668L524.141 62.4668L542.119 67.0342L542.119 67.0342C544.008 67.5146 545.485 68.9907 545.965 70.8803L545.965 70.8805L550.533 88.8589L550.533 88.8591C550.919 90.3803 553.081 90.3803 553.467 88.8591L553.467 88.8589L558.035 70.8805L558.035 70.8803C558.515 68.9907 559.992 67.5146 561.881 67.0342L561.881 67.0342L579.859 62.4668L579.859 62.4668C581.38 62.0805 581.38 59.9183 579.859 59.532L579.859 59.532L561.881 54.9646L561.881 54.9645C559.992 54.4841 558.515 53.008 558.035 51.1184L558.035 51.1183L553.467 33.1411L553.467 33.1409C553.081 31.6197 550.919 31.6197 550.533 33.1409L550.533 33.141L545.965 51.1195L545.965 51.1197C545.485 53.0093 544.008 54.4854 542.119 54.9658L542.119 54.9658L524.141 59.5332Z" stroke="white" stroke-width="2"/>
<path d="M424.025 241.396L423.924 241.422C421.325 242.177 421.359 245.927 424.025 246.604L424.025 246.604L450.392 253.302L450.393 253.302C452.998 253.965 455.034 256 455.696 258.606L455.696 258.606L462.395 284.975L462.395 284.975C463.081 287.675 466.919 287.675 467.605 284.975L467.605 284.975L474.304 258.606L474.304 258.606C474.966 256 477.002 253.965 479.607 253.302L479.608 253.302L505.975 246.604L505.975 246.604C508.675 245.918 508.675 242.08 505.975 241.395L505.975 241.395L479.608 234.696L479.607 234.696C477.002 234.033 474.966 231.998 474.304 229.392L474.304 229.392L467.605 203.025L467.605 203.025C466.919 200.325 463.081 200.325 462.395 203.025L462.395 203.025L455.696 229.394L455.696 229.394C455.034 232 452.998 234.035 450.393 234.698L450.392 234.698L424.025 241.396Z" stroke="white" stroke-width="2"/>
</svg>
