<svg width="38" height="37" viewBox="0 0 38 37" fill="none" xmlns="http://www.w3.org/2000/svg">
<path d="M18.783 9.23712C17.6411 9.23712 16.5249 9.57571 15.5755 10.2101C14.6262 10.8444 13.8862 11.7461 13.4492 12.801C13.0123 13.8559 12.8979 15.0167 13.1207 16.1366C13.3435 17.2565 13.8933 18.2852 14.7007 19.0926C15.5081 19.9 16.5368 20.4498 17.6567 20.6726C18.7766 20.8953 19.9374 20.781 20.9923 20.344C22.0472 19.9071 22.9488 19.1671 23.5832 18.2177C24.2176 17.2683 24.5561 16.1521 24.5561 15.0103C24.5561 13.4792 23.9479 12.0107 22.8652 10.928C21.7825 9.84537 20.3141 9.23712 18.783 9.23712ZM18.783 18.4742C18.0979 18.4742 17.4281 18.2711 16.8585 17.8905C16.2889 17.5098 15.8449 16.9688 15.5827 16.3359C15.3205 15.7029 15.2519 15.0065 15.3856 14.3345C15.5193 13.6626 15.8492 13.0454 16.3336 12.561C16.818 12.0765 17.4352 11.7466 18.1072 11.613C18.7791 11.4793 19.4756 11.5479 20.1085 11.8101C20.7415 12.0722 21.2825 12.5162 21.6631 13.0859C22.0437 13.6555 22.2469 14.3252 22.2469 15.0103C22.2458 15.9287 21.8806 16.8091 21.2312 17.4585C20.5818 18.1079 19.7013 18.4732 18.783 18.4742Z" fill="white"/>
<path d="M18.7831 2.30927C15.586 2.30927 12.4607 3.25732 9.80235 5.03355C7.14404 6.80977 5.07214 9.33439 3.84865 12.2881C2.62517 15.2419 2.30505 18.4921 2.92878 21.6278C3.5525 24.7635 5.09206 27.6438 7.35277 29.9045C9.61348 32.1652 12.4938 33.7048 15.6295 34.3285C18.7652 34.9523 22.0154 34.6321 24.9692 33.4086C27.9229 32.1852 30.4475 30.1133 32.2238 27.455C34 24.7966 34.948 21.6713 34.948 18.4742C34.9432 14.1885 33.2386 10.0797 30.2081 7.0492C27.1776 4.01873 23.0688 2.31409 18.7831 2.30927ZM11.8553 30.4553V28.8659C11.8563 27.9476 12.2216 27.0671 12.8709 26.4177C13.5203 25.7683 14.4008 25.403 15.3192 25.402H22.247C23.1654 25.403 24.0459 25.7683 24.6953 26.4177C25.3447 27.0671 25.7099 27.9476 25.7109 28.8659V30.4553C23.6085 31.6829 21.2177 32.3299 18.7831 32.3299C16.3485 32.3299 13.9577 31.6829 11.8553 30.4553ZM28.0115 28.7803C27.9886 27.2657 27.3715 25.8207 26.2932 24.7568C25.2149 23.693 23.7618 23.0953 22.247 23.0928H15.3192C13.8044 23.0953 12.3513 23.693 11.273 24.7568C10.1947 25.8207 9.57761 27.2657 9.55466 28.7803C7.4608 26.9106 5.98421 24.4491 5.32041 21.7216C4.65661 18.9941 4.83692 16.1293 5.83746 13.5066C6.838 10.8838 8.61157 8.62683 10.9233 7.03447C13.2351 5.4421 15.976 4.58947 18.7831 4.58947C21.5902 4.58947 24.3311 5.4421 26.6429 7.03447C28.9546 8.62683 30.7282 10.8838 31.7287 13.5066C32.7293 16.1293 32.9096 18.9941 32.2458 21.7216C31.582 24.4491 30.1054 26.9106 28.0115 28.7803Z" fill="white"/>
</svg>
