<svg width="20" height="20" viewBox="0 0 20 20" fill="none" xmlns="http://www.w3.org/2000/svg">
<path d="M5.85048 9.21863H9.21884V5.85026C9.21884 5.75276 9.29861 5.67298 9.39612 5.67298H10.4598C10.5573 5.67298 10.6371 5.75276 10.6371 5.85026V9.21863H14.0055C14.103 9.21863 14.1827 9.2984 14.1827 9.39591V10.4596C14.1827 10.5571 14.103 10.6369 14.0055 10.6369H10.6371V14.0052C10.6371 14.1027 10.5573 14.1825 10.4598 14.1825H9.39612C9.29861 14.1825 9.21884 14.1027 9.21884 14.0052V10.6369H5.85048C5.75297 10.6369 5.67319 10.5571 5.67319 10.4596V9.39591C5.67319 9.2984 5.75297 9.21863 5.85048 9.21863Z" fill="white"/>
<path d="M9.92779 0C15.4102 0 19.8556 4.44535 19.8556 9.9278C19.8556 15.4103 15.4102 19.8556 9.92779 19.8556C4.44534 19.8556 -1.52588e-05 15.4103 -1.52588e-05 9.9278C-1.52588e-05 4.44535 4.44534 0 9.92779 0ZM9.92779 18.1714C14.4795 18.1714 18.1714 14.4795 18.1714 9.9278C18.1714 5.37608 14.4795 1.68418 9.92779 1.68418C5.37607 1.68418 1.68417 5.37608 1.68417 9.9278C1.68417 14.4795 5.37607 18.1714 9.92779 18.1714Z" fill="white"/>
</svg>
