<svg width="46" height="46" viewBox="0 0 46 46" fill="none" xmlns="http://www.w3.org/2000/svg">
<path d="M13.3573 13.3572C13.4908 13.2234 13.6494 13.1172 13.8241 13.0447C13.9987 12.9722 14.1859 12.9349 14.375 12.9349C14.5641 12.9349 14.7513 12.9722 14.926 13.0447C15.1006 13.1172 15.2592 13.2234 15.3928 13.3572L23 20.9674L30.6073 13.3572C30.7409 13.2236 30.8996 13.1176 31.0742 13.0452C31.2488 12.9729 31.436 12.9357 31.625 12.9357C31.814 12.9357 32.0012 12.9729 32.1758 13.0452C32.3504 13.1176 32.5091 13.2236 32.6428 13.3572C32.7764 13.4909 32.8824 13.6496 32.9548 13.8242C33.0271 13.9988 33.0643 14.186 33.0643 14.375C33.0643 14.564 33.0271 14.7512 32.9548 14.9258C32.8824 15.1004 32.7764 15.2591 32.6428 15.3928L25.0326 23L32.6428 30.6073C32.7764 30.7409 32.8824 30.8996 32.9548 31.0742C33.0271 31.2488 33.0643 31.436 33.0643 31.625C33.0643 31.814 33.0271 32.0012 32.9548 32.1758C32.8824 32.3504 32.7764 32.5091 32.6428 32.6427C32.5091 32.7764 32.3504 32.8824 32.1758 32.9548C32.0012 33.0271 31.814 33.0643 31.625 33.0643C31.436 33.0643 31.2488 33.0271 31.0742 32.9548C30.8996 32.8824 30.7409 32.7764 30.6073 32.6427L23 25.0326L15.3928 32.6427C15.2591 32.7764 15.1004 32.8824 14.9258 32.9548C14.7512 33.0271 14.564 33.0643 14.375 33.0643C14.186 33.0643 13.9988 33.0271 13.8242 32.9548C13.6496 32.8824 13.4909 32.7764 13.3573 32.6427C13.2236 32.5091 13.1176 32.3504 13.0453 32.1758C12.9729 32.0012 12.9357 31.814 12.9357 31.625C12.9357 31.436 12.9729 31.2488 13.0453 31.0742C13.1176 30.8996 13.2236 30.7409 13.3573 30.6073L20.9674 23L13.3573 15.3928C13.2234 15.2592 13.1172 15.1006 13.0447 14.9259C12.9722 14.7513 12.9349 14.5641 12.9349 14.375C12.9349 14.1859 12.9722 13.9987 13.0447 13.8241C13.1172 13.6494 13.2234 13.4908 13.3573 13.3572Z" fill="#717171"/>
</svg>
