<svg width="18" height="18" viewBox="0 0 18 18" fill="none" xmlns="http://www.w3.org/2000/svg">
<path d="M15.7105 0.306335H2.14764C1.08198 0.306335 0.210083 1.17823 0.210083 2.24389V15.8068C0.210083 16.8724 1.08198 17.7443 2.14764 17.7443H15.7105C16.7762 17.7443 17.6481 16.8724 17.6481 15.8068V2.24389C17.6481 1.17823 16.7762 0.306335 15.7105 0.306335ZM7.67935 13.1814C7.58972 13.2712 7.48327 13.3424 7.36607 13.391C7.24887 13.4397 7.12324 13.4647 6.99636 13.4647C6.86948 13.4647 6.74385 13.4397 6.62665 13.391C6.50946 13.3424 6.403 13.2712 6.31337 13.1814L2.83547 9.70347C2.74578 9.61377 2.67463 9.5073 2.62609 9.39011C2.57755 9.27292 2.55256 9.14732 2.55256 9.02048C2.55256 8.89364 2.57755 8.76804 2.62609 8.65085C2.67463 8.53366 2.74578 8.42718 2.83547 8.33749C2.92516 8.2478 3.03164 8.17665 3.14882 8.12811C3.26601 8.07957 3.39161 8.05459 3.51845 8.05459C3.6453 8.05459 3.7709 8.07957 3.88808 8.12811C4.00527 8.17665 4.11175 8.2478 4.20144 8.33749L6.99152 11.1276L13.6567 4.46239C13.8378 4.28125 14.0835 4.17948 14.3397 4.17948C14.5959 4.17948 14.8415 4.28125 15.0227 4.46239C15.2038 4.64353 15.3056 4.8892 15.3056 5.14537C15.3056 5.40154 15.2038 5.64722 15.0227 5.82836L7.67935 13.1814Z" fill="#E2E2E2"/>
</svg>
