<svg width="28" height="28" viewBox="0 0 28 28" fill="none" xmlns="http://www.w3.org/2000/svg">
<path d="M19.4504 9.84555C19.3303 9.53466 19.1465 9.25236 18.9107 9.01683C18.6749 8.7813 18.3924 8.59777 18.0814 8.47806C17.6532 8.31945 17.2008 8.23561 16.7442 8.23022C15.9848 8.19563 15.7571 8.18699 13.8334 8.18699C11.9097 8.18699 11.682 8.19563 10.9226 8.23022C10.4655 8.23545 10.0127 8.31929 9.58396 8.47806C9.27307 8.5981 8.99077 8.78193 8.75524 9.0177C8.51971 9.25348 8.33618 9.53598 8.21647 9.84699C8.05786 10.2752 7.97402 10.7276 7.96863 11.1842C7.93404 11.9436 7.9254 12.1713 7.9254 14.095C7.9254 16.0187 7.93404 16.2464 7.96863 17.0058C7.97386 17.4629 8.0577 17.9157 8.21647 18.3445C8.33651 18.6553 8.52034 18.9376 8.75611 19.1732C8.99189 19.4087 9.27438 19.5922 9.5854 19.7119C10.0137 19.8706 10.466 19.9544 10.9226 19.9598C11.682 19.9944 11.9097 20.0016 13.8334 20.0016C15.7571 20.0016 15.9848 19.9944 16.7442 19.9583C17.2012 19.9536 17.6541 19.8702 18.0829 19.7119C18.3938 19.5919 18.6761 19.4081 18.9116 19.1723C19.1471 18.9365 19.3306 18.654 19.4504 18.343C19.609 17.9148 19.6928 17.4624 19.6982 17.0058C19.7328 16.2464 19.74 16.0187 19.74 14.095C19.74 12.1713 19.7328 11.9436 19.6968 11.1842C19.692 10.7272 19.6086 10.2743 19.4504 9.84555ZM13.8334 17.7954C13.1015 17.7954 12.3861 17.5784 11.7776 17.1718C11.169 16.7652 10.6947 16.1873 10.4147 15.5111C10.1346 14.8349 10.0613 14.0909 10.2041 13.3731C10.3469 12.6553 10.6993 11.9959 11.2168 11.4784C11.7343 10.9609 12.3937 10.6085 13.1115 10.4657C13.8293 10.3229 14.5733 10.3962 15.2495 10.6762C15.9257 10.9563 16.5036 11.4306 16.9102 12.0392C17.3168 12.6477 17.5338 13.3631 17.5338 14.095C17.5338 15.0764 17.144 16.0176 16.45 16.7116C15.7561 17.4056 14.8148 17.7954 13.8334 17.7954ZM17.6794 11.1136C17.5084 11.1136 17.3412 11.0629 17.199 10.9679C17.0569 10.8729 16.9461 10.7379 16.8806 10.5799C16.8152 10.4219 16.7981 10.2481 16.8314 10.0804C16.8648 9.91264 16.9471 9.75859 17.068 9.63767C17.1889 9.51676 17.343 9.43441 17.5107 9.40105C17.6784 9.36769 17.8523 9.38481 18.0103 9.45025C18.1682 9.51569 18.3033 9.62651 18.3983 9.76869C18.4933 9.91087 18.544 10.078 18.544 10.249C18.544 10.4783 18.4529 10.6982 18.2907 10.8604C18.1286 11.0225 17.9087 11.1136 17.6794 11.1136ZM16.2355 14.095C16.2355 14.5701 16.0946 15.0345 15.8307 15.4295C15.5668 15.8246 15.1916 16.1325 14.7527 16.3143C14.3137 16.4961 13.8307 16.5436 13.3648 16.451C12.8988 16.3583 12.4708 16.1295 12.1349 15.7936C11.7989 15.4576 11.5701 15.0296 11.4775 14.5636C11.3848 14.0977 11.4323 13.6147 11.6142 13.1758C11.796 12.7368 12.1038 12.3617 12.4989 12.0977C12.8939 11.8338 13.3583 11.6929 13.8334 11.6929C14.4705 11.6929 15.0815 11.946 15.532 12.3965C15.9824 12.8469 16.2355 13.4579 16.2355 14.095ZM13.8334 0.261597C11.0974 0.261597 8.42288 1.07291 6.14798 2.59295C3.87309 4.11298 2.10003 6.27346 1.05301 8.80119C0.00599377 11.3289 -0.267954 14.1103 0.265811 16.7938C0.799576 19.4772 2.11708 21.9421 4.05172 23.8767C5.98635 25.8113 8.45123 27.1288 11.1346 27.6626C13.8181 28.1964 16.5995 27.9224 19.1272 26.8754C21.655 25.8284 23.8154 24.0553 25.3355 21.7804C26.8555 19.5055 27.6668 16.831 27.6668 14.095C27.6668 10.4262 26.2094 6.90757 23.6151 4.31331C21.0208 1.71904 17.5023 0.261597 13.8334 0.261597V0.261597ZM20.9951 17.0649C20.9829 17.6628 20.8694 18.2543 20.6593 18.8142C20.4743 19.2927 20.1913 19.7273 19.8285 20.0901C19.4657 20.4529 19.0311 20.7359 18.5526 20.9209C17.9931 21.1308 17.4021 21.2443 16.8047 21.2567C16.0352 21.2913 15.7903 21.2999 13.8334 21.2999C11.8766 21.2999 11.6316 21.2913 10.8621 21.2567C10.2647 21.2443 9.67369 21.1308 9.1142 20.9209C8.63568 20.7359 8.20111 20.4529 7.83832 20.0901C7.47554 19.7273 7.19255 19.2927 7.00749 18.8142C6.79763 18.2547 6.68411 17.6637 6.67174 17.0663C6.63716 16.2968 6.62851 16.0519 6.62851 14.095C6.62851 12.1382 6.63716 11.8932 6.67174 11.1237C6.68364 10.5264 6.79668 9.93536 7.00605 9.37579C7.1911 8.89687 7.47423 8.46192 7.83728 8.09887C8.20033 7.73582 8.63528 7.45269 9.1142 7.26764C9.67377 7.05827 10.2648 6.94523 10.8621 6.93333C11.6316 6.89875 11.8766 6.8901 13.8334 6.8901C15.7903 6.8901 16.0352 6.89875 16.8047 6.93333C17.4021 6.94523 17.9931 7.05827 18.5526 7.26764C19.0313 7.45286 19.4659 7.73607 19.8287 8.09911C20.1915 8.46215 20.4744 8.89701 20.6593 9.37579C20.8692 9.93528 20.9827 10.5263 20.9951 11.1237C21.0297 11.8932 21.0383 12.1382 21.0383 14.095C21.0383 16.0519 21.0297 16.2968 20.9951 17.0663V17.0649Z" fill="white"/>
</svg>
