<svg width="1198" height="1198" viewBox="0 0 1198 1198" fill="none" xmlns="http://www.w3.org/2000/svg">
<path d="M579.161 382.654L543.84 521.68C540.824 533.547 531.553 542.818 519.687 545.835L380.653 581.156C361.116 586.117 361.116 613.883 380.653 618.844L519.677 654.165C531.543 657.182 540.814 666.453 543.831 678.32L579.152 817.346C584.113 836.885 611.878 836.885 616.839 817.346L652.16 678.32C655.176 666.453 664.447 657.182 676.313 654.165L815.347 618.844C834.884 613.883 834.884 586.117 815.347 581.156L676.313 545.835C664.447 542.818 655.176 533.547 652.16 521.68L616.839 382.654C611.877 363.115 584.113 363.115 579.152 382.654L579.161 382.654Z" fill="url(#paint0_linear_2224_2)"/>
<path d="M619.838 817.346L655.16 678.32C658.176 666.453 667.447 657.182 679.313 654.165L818.347 618.844C837.884 613.883 837.884 586.117 818.347 581.156L679.323 545.835C667.457 542.818 658.186 533.547 655.169 521.68L619.848 382.654C614.887 363.115 587.122 363.115 582.161 382.654L546.84 521.68C543.824 533.547 534.553 542.818 522.687 545.835L383.653 581.156C364.116 586.117 364.116 613.883 383.653 618.844L522.687 654.165C534.553 657.182 543.824 666.453 546.84 678.32L582.161 817.346C587.122 836.885 614.887 836.885 619.848 817.346L619.838 817.346Z" fill="url(#paint1_linear_2224_2)"/>
<mask id="mask0_2224_2" style="mask-type:alpha" maskUnits="userSpaceOnUse" x="0" y="0" width="1198" height="1198">
<g opacity="0.3">
<path d="M598.844 935.377C616.142 935.377 632.612 930.075 646.473 920.053C661.651 909.073 672.605 892.852 677.3 874.356L709.614 747.176C714.266 728.868 728.555 714.579 746.863 709.927L874.043 677.613C892.531 672.918 908.76 661.964 919.74 646.786C929.762 632.925 935.064 616.455 935.064 599.157C935.064 581.858 929.762 565.388 919.74 551.527C908.76 536.349 892.539 525.395 874.043 520.7L746.863 488.386C728.555 483.734 714.266 469.445 709.614 451.137L677.308 323.957C672.614 305.47 661.66 289.24 646.482 278.26C632.62 268.238 616.151 262.937 598.852 262.937C581.553 262.937 565.084 268.238 551.223 278.26C536.044 289.24 525.09 305.461 520.396 323.957L488.09 451.137C483.438 469.445 469.149 483.734 450.841 488.386L323.661 520.7C305.174 525.395 288.944 536.34 277.964 551.527C267.942 565.388 262.641 581.858 262.641 599.157C262.641 616.455 267.942 632.925 277.964 646.786C288.944 661.964 305.165 672.918 323.661 677.613L450.841 709.919C469.149 714.571 483.438 728.859 488.09 747.167L520.396 874.348C525.09 892.835 536.044 909.065 551.223 920.045C565.084 930.066 581.553 935.368 598.852 935.368L598.844 935.377Z" stroke="#818181" stroke-width="2.94314" stroke-miterlimit="10"/>
<path d="M598.843 1022.36C634.561 1022.36 668.654 1011.35 697.437 990.539C729.102 967.64 751.891 933.991 761.605 895.776L785.659 801.09C787.549 793.659 793.346 787.862 800.777 785.972L895.463 761.918C933.678 752.212 967.327 729.423 990.226 697.75C1011.04 668.959 1022.04 634.866 1022.04 599.156C1022.04 563.447 1011.04 529.345 990.226 500.562C967.327 468.889 933.669 446.109 895.463 436.395L800.777 412.341C793.346 410.451 787.549 404.653 785.659 397.222L761.605 302.536C751.899 264.321 729.11 230.673 697.437 207.773C668.646 186.96 634.553 175.955 598.843 175.955C563.134 175.955 529.032 186.96 500.249 207.773C468.576 230.673 445.787 264.33 436.082 302.536L412.028 397.222C410.138 404.653 404.34 410.451 396.909 412.341L302.223 436.395C264.017 446.1 230.36 468.889 207.46 500.562C186.647 529.345 175.642 563.447 175.642 599.156C175.642 634.866 186.647 668.967 207.46 697.75C230.36 729.423 264.017 752.204 302.223 761.918L396.909 785.972C404.34 787.862 410.138 793.659 412.028 801.09L436.082 895.776C445.787 933.991 468.576 967.64 500.249 990.539C529.041 1011.35 563.134 1022.36 598.843 1022.36Z" stroke="#818181" stroke-width="2.94314" stroke-miterlimit="10"/>
<path d="M598.843 1109.35C652.972 1109.35 704.689 1092.64 748.41 1061.03C796.57 1026.21 831.193 975.139 845.91 917.205L857.702 870.79C859.292 864.522 864.192 859.622 870.46 858.032L916.875 846.24C974.809 831.524 1025.89 796.892 1060.71 748.741C1092.32 705.027 1109.03 653.31 1109.03 599.174C1109.03 545.037 1092.32 493.32 1060.71 449.607C1025.89 401.447 974.809 366.824 916.875 352.107L870.46 340.315C864.192 338.725 859.292 333.825 857.702 327.557L845.91 281.142C831.193 223.208 796.561 172.124 748.41 137.304C704.697 105.699 652.972 88.9902 598.843 88.9902C544.715 88.9902 492.998 105.699 449.276 137.304C401.117 172.124 366.485 223.208 351.768 281.142L339.976 327.557C338.386 333.825 333.486 338.725 327.218 340.315L280.803 352.107C222.869 366.824 171.794 401.447 136.965 449.615C105.36 493.328 88.6514 545.045 88.6514 599.174C88.6514 653.302 105.36 705.019 136.965 748.741C171.785 796.9 222.869 831.524 280.803 846.249L327.218 858.04C333.486 859.631 338.386 864.531 339.976 870.799L351.768 917.214C366.485 975.148 401.117 1026.23 449.276 1061.05C492.989 1092.66 544.706 1109.37 598.843 1109.37V1109.35Z" stroke="#818181" stroke-width="2.94314" stroke-miterlimit="10"/>
<path d="M598.843 1196.33C671.391 1196.33 740.732 1173.92 799.375 1131.52C864.021 1084.78 910.488 1016.28 930.215 938.617C931.224 934.641 934.32 931.546 938.287 930.537C1015.94 910.809 1084.45 864.343 1131.19 799.696C1173.59 741.062 1196 671.712 1196 599.165C1196 526.618 1173.59 457.268 1131.19 398.633C1084.45 333.987 1015.94 287.521 938.279 267.793C934.311 266.784 931.215 263.689 930.206 259.721C910.479 182.06 864.013 113.557 799.366 66.8087C740.723 24.4124 671.382 2 598.835 2C526.287 2 456.947 24.4124 398.303 66.8087C333.657 113.557 287.182 182.06 267.455 259.713C266.446 263.68 263.35 266.776 259.382 267.785C181.73 287.512 113.219 333.979 66.4786 398.633C24.0823 457.268 1.66992 526.609 1.66992 599.165C1.66992 671.721 24.0823 741.053 66.4786 799.696C113.227 864.343 181.73 910.809 259.382 930.537C263.35 931.546 266.446 934.641 267.455 938.609C287.182 1016.27 333.649 1084.77 398.303 1131.52C456.947 1173.92 526.287 1196.33 598.835 1196.33H598.843Z" stroke="#818181" stroke-width="2.94314" stroke-miterlimit="10"/>
<path d="M379.209 618.208L519.703 653.9C531.7 656.945 541.064 666.317 544.108 678.305L579.8 818.799C584.82 838.544 612.867 838.544 617.878 818.799L653.57 678.305C656.614 666.308 665.986 656.945 677.975 653.9L818.469 618.208C838.214 613.189 838.214 585.141 818.469 580.13L677.975 544.438C665.978 541.394 656.614 532.022 653.57 520.033L617.878 379.539C612.859 359.794 584.811 359.794 579.8 379.539L544.108 520.033C541.064 532.03 531.692 541.394 519.703 544.438L379.209 580.13C359.464 585.15 359.464 613.197 379.209 618.208V618.208Z" stroke="#818181" stroke-width="2.94314" stroke-miterlimit="10"/>
</g>
</mask>
<g mask="url(#mask0_2224_2)">
<rect x="-7.62744" y="-16.5947" width="1223.77" height="1231.9" fill="#CECECE"/>
</g>
<defs>
<linearGradient id="paint0_linear_2224_2" x1="366" y1="600" x2="598" y2="600" gradientUnits="userSpaceOnUse">
<stop stop-color="#EB70FF"/>
<stop offset="1" stop-color="#E087FF" stop-opacity="0"/>
</linearGradient>
<linearGradient id="paint1_linear_2224_2" x1="833" y1="600" x2="601" y2="600" gradientUnits="userSpaceOnUse">
<stop stop-color="#42BBFF"/>
<stop offset="1" stop-color="#20C9FF" stop-opacity="0"/>
</linearGradient>
</defs>
</svg>
