<svg width="105" height="105" viewBox="0 0 105 105" fill="none" xmlns="http://www.w3.org/2000/svg">
<path d="M101.204 48.0102L69.8916 40.0548C67.219 39.3754 65.1309 37.2873 64.4514 34.6147L56.4961 3.30033C55.3787 -1.10011 49.1254 -1.10011 48.008 3.30033L40.0527 34.6125C39.3732 37.2852 37.2851 39.3732 34.6125 40.0527L3.30033 48.008C-1.10011 49.1254 -1.10011 55.3787 3.30033 56.4961L34.6125 64.4514C37.2851 65.1309 39.3732 67.219 40.0527 69.8916L48.008 101.206C49.1254 105.606 55.3787 105.606 56.4961 101.206L64.4514 69.8916C65.1309 67.219 67.219 65.1309 69.8916 64.4514L101.204 56.4961C105.604 55.3787 105.604 49.1254 101.204 48.008V48.0102Z" fill="white"/>
</svg>
