<svg width="579" height="701" viewBox="0 0 579 701" fill="none" xmlns="http://www.w3.org/2000/svg">
<path d="M87.8949 27.564L105.872 22.9966C107.407 22.6065 108.606 21.4077 108.996 19.8733L113.563 1.89481C114.205 -0.631605 117.795 -0.631605 118.437 1.89481L123.004 19.872C123.394 21.4065 124.593 22.6053 126.128 22.9954L144.105 27.5627C146.632 28.2043 146.632 31.7945 144.105 32.436L126.128 37.0034C124.593 37.3935 123.394 38.5923 123.004 40.1267L118.437 58.1052C117.795 60.6316 114.205 60.6316 113.563 58.1052L108.996 40.1267C108.606 38.5923 107.407 37.3935 105.872 37.0034L87.8949 32.436C85.3684 31.7945 85.3684 28.2043 87.8949 27.5627V27.564Z" fill="#EC79FF"/>
<path d="M1.89486 380.564L19.8724 375.997C21.4069 375.607 22.6057 374.408 22.9959 372.873L27.5633 354.895C28.2048 352.368 31.7952 352.368 32.4367 354.895L37.0041 372.872C37.3943 374.406 38.5931 375.605 40.1276 375.995L58.1051 380.563C60.6316 381.204 60.6316 384.794 58.1051 385.436L40.1276 390.003C38.5931 390.393 37.3943 391.592 37.0041 393.127L32.4367 411.105C31.7952 413.632 28.2048 413.632 27.5633 411.105L22.9959 393.127C22.6057 391.592 21.4069 390.393 19.8724 390.003L1.89486 385.436C-0.631617 384.794 -0.631617 381.204 1.89486 380.563V380.564Z" fill="#EC79FF"/>
<path d="M85.8949 668.564L103.872 663.997C105.407 663.607 106.606 662.408 106.996 660.873L111.563 642.895C112.205 640.368 115.795 640.368 116.437 642.895L121.004 660.872C121.394 662.406 122.593 663.605 124.128 663.995L142.105 668.563C144.632 669.204 144.632 672.794 142.105 673.436L124.128 678.003C122.593 678.393 121.394 679.592 121.004 681.127L116.437 699.105C115.795 701.632 112.205 701.632 111.563 699.105L106.996 681.127C106.606 679.592 105.407 678.393 103.872 678.003L85.8949 673.436C83.3684 672.794 83.3684 669.204 85.8949 668.563V668.564Z" fill="#EC79FF"/>
<path d="M520.895 27.564L538.872 22.9966C540.407 22.6065 541.606 21.4077 541.996 19.8733L546.563 1.89481C547.205 -0.631605 550.795 -0.631605 551.437 1.89481L556.004 19.872C556.394 21.4065 557.593 22.6053 559.128 22.9954L577.105 27.5627C579.632 28.2043 579.632 31.7945 577.105 32.436L559.128 37.0034C557.593 37.3935 556.394 38.5923 556.004 40.1267L551.437 58.1052C550.795 60.6316 547.205 60.6316 546.563 58.1052L541.996 40.1267C541.606 38.5923 540.407 37.3935 538.872 37.0034L520.895 32.436C518.368 31.7945 518.368 28.2043 520.895 27.5627V27.564Z" fill="#79C7FF"/>
<path d="M383.895 259.564L401.872 254.997C403.407 254.607 404.606 253.408 404.996 251.873L409.563 233.895C410.205 231.368 413.795 231.368 414.437 233.895L419.004 251.872C419.394 253.406 420.593 254.605 422.128 254.995L440.105 259.563C442.632 260.204 442.632 263.794 440.105 264.436L422.128 269.003C420.593 269.393 419.394 270.592 419.004 272.127L414.437 290.105C413.795 292.632 410.205 292.632 409.563 290.105L404.996 272.127C404.606 270.592 403.407 269.393 401.872 269.003L383.895 264.436C381.368 263.794 381.368 260.204 383.895 259.563V259.564Z" fill="#79C7FF"/>
<path d="M460.895 540.564L478.872 535.997C480.407 535.607 481.606 534.408 481.996 532.873L486.563 514.895C487.205 512.368 490.795 512.368 491.437 514.895L496.004 532.872C496.394 534.406 497.593 535.605 499.128 535.995L517.105 540.563C519.632 541.204 519.632 544.794 517.105 545.436L499.128 550.003C497.593 550.393 496.394 551.592 496.004 553.127L491.437 571.105C490.795 573.632 487.205 573.632 486.563 571.105L481.996 553.127C481.606 551.592 480.407 550.393 478.872 550.003L460.895 545.436C458.368 544.794 458.368 541.204 460.895 540.563V540.564Z" fill="#79C7FF"/>
</svg>
