<?xml version="1.0" encoding="utf-8"?>
<!-- Svg Vector Icons : http://www.onlinewebfonts.com/icon -->
<!DOCTYPE svg PUBLIC "-//W3C//DTD SVG 1.1//EN" "http://www.w3.org/Graphics/SVG/1.1/DTD/svg11.dtd">
<svg version="1.1" xmlns="http://www.w3.org/2000/svg" xmlns:xlink="http://www.w3.org/1999/xlink" x="0px" y="0px" viewBox="0 0 1000 1000" enable-background="new 0 0 1000 1000" xml:space="preserve">
<metadata> Svg Vector Icons : http://www.onlinewebfonts.com/icon </metadata>
<g><g transform="translate(0.000000,512.000000) scale(0.100000,-0.100000)"><path d="M6401.1,4975.7c-153.2-57.5,231.7,317.9-4050.4-3937.4C-68-1363.3,90.9-1187.1,108.2-1461c5.7-88.1,24.9-166.6,53.6-222.1c47.9-95.8,664.5-731.6,754.5-779.5c78.5-40.2,157-23,296.8,68.9c365.8,235.6,748.8,231.7,1070.5-13.4c252.8-189.6,386.9-488.3,360-802.4c-13.4-166.6-63.2-306.4-164.7-453.9c-88.1-128.3-105.3-180-86.2-256.6c17.2-74.7,656.9-712.4,783.3-783.3c86.2-47.9,116.8-53.6,260.5-53.6c145.6,0,174.3,5.7,264.3,57.5c124.5,72.8,6068.9,6003.8,6147.4,6137.9c44,74.7,51.7,107.2,51.7,239.4c0,122.6-9.6,170.4-46,239.4c-49.8,95.8-668.3,733.5-756.5,779.4c-76.6,40.2-159,23-283.4-61.3c-281.5-185.8-614.7-212.6-911.6-70.9c-59.4,26.8-160.9,101.5-227.9,162.8c-325.6,306.4-383,783.3-137.9,1162.5c91.9,141.7,109.2,220.2,69,298.8c-47.9,90-683.7,706.7-779.4,754.5C6719,4998.6,6504.6,5014,6401.1,4975.7z M6640.5,4596.5c23-11.5,155.1-132.1,291.1-268.1l250.9-249l-61.3-126.4c-178.1-367.7-168.5-806.2,26.8-1183.5c105.3-203,348.6-440.5,559.2-542c218.3-107.2,354.3-139.8,584.1-141.7c218.3,0,373.4,32.6,570.7,122.6l130.2,61.3l239.4-239.4c264.3-262.4,304.5-316,277.7-384.9c-9.6-24.9-262.4-287.3-561.1-584.1C8523,636.1,8400.5,525,8377.5,538.4c-15.3,9.6-61.3,19.2-101.5,19.2c-136,0-227.9-153.2-164.7-271.9c19.2-36.4-180-241.3-2282.8-2344.1c-1601-1601-2321.1-2307.7-2355.5-2315.3c-80.4-17.2-139.8,24.9-396.4,283.4l-237.5,237.5l59.4,116.8c95.8,189.6,139.8,384.9,139.8,607.1c-1.9,227.9-34.5,367.7-136,574.5c-132.1,268.1-325.6,459.6-605.2,593.7c-203,97.7-342.8,130.2-565,130.2c-193.4,0-356.2-40.2-561.1-134.1l-149.4-70.9l-239.4,239.4c-262.4,258.5-302.6,317.9-285.3,398.3c7.7,38.3,679.9,718.2,2319.2,2346c1832.7,1823.2,2313.4,2290.4,2340.2,2279c17.2-7.7,63.2-17.2,101.5-21.1c95.8-11.5,189.6,74.7,189.6,176.2c0,38.3-7.7,84.3-17.2,103.4c-15.3,26.8,72.8,124.5,520.9,570.7c296.8,294.9,553.5,542,568.8,547.7C6565.8,4621.4,6596.5,4619.4,6640.5,4596.5z"/><path d="M5675.3,2968.6c-61.3-67-70.8-141.7-28.7-224.1c30.7-55.5,258.5-285.4,337.1-337.1c72.8-47.9,158.9-38.3,227.9,24.9c47.9,46,59.4,70.9,59.4,137.9c0,78.5-7.7,90-187.7,270c-180,180-191.5,187.7-270,187.7C5746.2,3028,5721.3,3016.5,5675.3,2968.6z"/><path d="M6502.6,2145.2c-63.2-63.2-76.6-137.9-38.3-214.5c30.7-61.3,285.4-317.9,346.7-350.5c137.9-72.8,283.4,13.4,283.4,166.6c0,78.5-9.6,90-187.7,270c-176.2,176.2-193.4,187.7-266.2,187.7C6577.3,2204.5,6548.6,2193,6502.6,2145.2z"/><path d="M7370.2,1360c-84.3-42.1-126.4-168.5-82.4-252.8c30.6-61.3,285.4-317.9,346.6-350.5c126.4-67,264.3-5.7,291.1,132.1c15.3,80.4-23,139.8-216.4,325.6c-147.4,141.7-181.9,166.6-235.5,164.7C7439.1,1379.1,7393.1,1369.5,7370.2,1360z"/></g></g>
</svg>