<svg width="28" height="31" viewBox="0 0 28 31" fill="none" xmlns="http://www.w3.org/2000/svg">
<path d="M24.2915 0.48053H4.73715C2.92311 0.48053 0.224609 1.68237 0.224609 4.99307V9.50561V18.5307V23.0432V26.0516C0.224609 29.3623 2.92311 30.5641 4.73715 30.5641H27.2999V27.5558H4.7552C4.06027 27.5377 3.23297 27.264 3.23297 26.0516C3.23297 24.8392 4.06027 24.5655 4.7552 24.5474H24.2915H25.7957H27.2999V23.0432V20.0349V3.48889C27.2999 1.82978 25.9506 0.48053 24.2915 0.48053ZM24.2915 21.5391H3.23297V18.5307V9.50561V4.99307C3.23297 3.7807 4.06027 3.50694 4.73715 3.48889H24.2915V20.0349V21.5391Z" fill="black"/>
</svg>
