<svg width="13" height="13" viewBox="0 0 13 13" fill="none" xmlns="http://www.w3.org/2000/svg">
<path d="M1.15393 1.03993C1.23106 0.962599 1.3227 0.901246 1.42358 0.859384C1.52446 0.817522 1.63261 0.795975 1.74184 0.795975C1.85106 0.795975 1.95921 0.817522 2.06009 0.859384C2.16098 0.901246 2.25261 0.962599 2.32975 1.03993L6.72412 5.43596L11.1185 1.03993C11.1957 0.962724 11.2873 0.901481 11.3882 0.859698C11.4891 0.817915 11.5972 0.796409 11.7064 0.796409C11.8156 0.796409 11.9237 0.817915 12.0246 0.859698C12.1254 0.901481 12.2171 0.962724 12.2943 1.03993C12.3715 1.11713 12.4328 1.20879 12.4745 1.30966C12.5163 1.41054 12.5378 1.51865 12.5378 1.62784C12.5378 1.73702 12.5163 1.84514 12.4745 1.94601C12.4328 2.04689 12.3715 2.13854 12.2943 2.21575L7.89827 6.61012L12.2943 11.0045C12.3715 11.0817 12.4328 11.1733 12.4745 11.2742C12.5163 11.3751 12.5378 11.4832 12.5378 11.5924C12.5378 11.7016 12.5163 11.8097 12.4745 11.9106C12.4328 12.0114 12.3715 12.1031 12.2943 12.1803C12.2171 12.2575 12.1254 12.3188 12.0246 12.3605C11.9237 12.4023 11.8156 12.4238 11.7064 12.4238C11.5972 12.4238 11.4891 12.4023 11.3882 12.3605C11.2873 12.3188 11.1957 12.2575 11.1185 12.1803L6.72412 7.78427L2.32975 12.1803C2.25254 12.2575 2.16088 12.3188 2.06001 12.3605C1.95914 12.4023 1.85102 12.4238 1.74184 12.4238C1.63265 12.4238 1.52454 12.4023 1.42366 12.3605C1.32279 12.3188 1.23113 12.2575 1.15393 12.1803C1.07672 12.1031 1.01548 12.0114 0.973697 11.9106C0.931914 11.8097 0.910408 11.7016 0.910408 11.5924C0.910408 11.4832 0.931914 11.3751 0.973697 11.2742C1.01548 11.1733 1.07672 11.0817 1.15393 11.0045L5.54996 6.61012L1.15393 2.21575C1.0766 2.13861 1.01524 2.04698 0.973382 1.9461C0.93152 1.84521 0.909973 1.73706 0.909973 1.62784C0.909973 1.51861 0.93152 1.41046 0.973382 1.30958C1.01524 1.2087 1.0766 1.11706 1.15393 1.03993Z" fill="white"/>
</svg>
