<svg width="26" height="25" viewBox="0 0 26 25" fill="none" xmlns="http://www.w3.org/2000/svg">
<path fill-rule="evenodd" clip-rule="evenodd" d="M19.2912 10.695C19.2912 12.8221 18.4462 14.862 16.9421 16.3661C15.438 17.8702 13.3981 18.7152 11.271 18.7152C9.14386 18.7152 7.10389 17.8702 5.5998 16.3661C4.09572 14.862 3.25073 12.8221 3.25073 10.695C3.25073 8.56786 4.09572 6.52789 5.5998 5.0238C7.10389 3.51972 9.14386 2.67473 11.271 2.67473C13.3981 2.67473 15.438 3.51972 16.9421 5.0238C18.4462 6.52789 19.2912 8.56786 19.2912 10.695ZM17.8294 19.1448C15.6802 20.8133 12.9758 21.6001 10.267 21.3449C7.55808 21.0897 5.04828 19.8117 3.2485 17.7711C1.44873 15.7305 0.494284 13.0807 0.579467 10.3612C0.66465 7.64161 1.78306 5.05675 3.70701 3.13279C5.63097 1.20884 8.21583 0.0904314 10.9354 0.00524812C13.6549 -0.0799351 16.3047 0.874512 18.3453 2.67429C20.3859 4.47406 21.6639 6.98386 21.9191 9.69274C22.1743 12.4016 21.3876 15.106 19.719 17.2552L25.1383 22.6745C25.2697 22.7969 25.3751 22.9445 25.4481 23.1085C25.5212 23.2725 25.5605 23.4496 25.5637 23.6291C25.5668 23.8086 25.5338 23.9869 25.4666 24.1534C25.3993 24.3199 25.2992 24.4711 25.1723 24.5981C25.0453 24.725 24.8941 24.8251 24.7276 24.8924C24.5611 24.9596 24.3828 24.9926 24.2033 24.9895C24.0238 24.9863 23.8467 24.947 23.6827 24.8739C23.5187 24.8008 23.3711 24.6955 23.2487 24.5641L17.8294 19.1448Z" fill="white"/>
</svg>
