<svg width="28" height="28" viewBox="0 0 28 28" fill="none" xmlns="http://www.w3.org/2000/svg">
<path d="M13.8281 0C6.20326 0 0 6.20372 0 13.8291C0 21.4593 6.20326 27.6668 13.8281 27.6668C21.4587 27.6668 27.6668 21.4593 27.6668 13.8291C27.6668 6.20372 21.4587 0 13.8281 0ZM6.81057 18.9105C8.4138 18.4225 10.0576 18.175 11.696 18.175C14.4786 18.175 17.2257 18.8802 19.6415 20.2151C19.7852 20.2934 19.9158 20.5523 19.9744 20.8746C20.0331 21.1968 20.0097 21.5281 19.9156 21.7005C19.7969 21.9217 19.5559 22.0646 19.3018 22.0646C19.1758 22.0646 19.065 22.0363 18.9542 21.9764C16.7365 20.7575 14.2267 20.1131 11.696 20.1131C10.1671 20.1131 8.66607 20.3394 7.236 20.7852C7.16634 20.8063 7.09468 20.8171 7.02302 20.8171C6.70988 20.8172 6.43812 20.6177 6.34695 20.3217C6.22386 19.917 6.47849 19.0191 6.81057 18.9105ZM6.20735 13.8155C7.99426 13.3298 9.84095 13.0834 11.696 13.0834C15.031 13.0834 18.3428 13.8904 21.2752 15.4183C21.4808 15.5226 21.6322 15.6994 21.7016 15.9163C21.7721 16.1359 21.7508 16.372 21.641 16.5827C21.3793 17.0949 21.0734 17.439 20.8797 17.439C20.7423 17.439 20.6098 17.406 20.4778 17.3401C17.7547 15.9221 14.8003 15.2031 11.696 15.2031C9.96931 15.2031 8.27528 15.4302 6.66253 15.8775C6.58752 15.8979 6.5105 15.9082 6.43385 15.9082C6.04588 15.9082 5.70399 15.6462 5.60276 15.272C5.47313 14.7854 5.7693 13.9346 6.20735 13.8155ZM6.05287 10.4867C5.97095 10.5069 5.88722 10.5171 5.80396 10.5171C5.33507 10.5172 4.92877 10.2004 4.81593 9.74725C4.67452 9.17368 5.03337 8.50741 5.55305 8.37651C7.57417 7.88005 9.64093 7.62833 11.696 7.62833C15.6742 7.62833 19.4841 8.52274 23.0213 10.2873C23.267 10.4084 23.4502 10.6176 23.5372 10.8762C23.6242 11.1351 23.6051 11.4138 23.4835 11.66C23.3178 11.9915 22.9599 12.3485 22.5654 12.3485C22.4134 12.3485 22.2572 12.3128 22.1188 12.2479C18.8696 10.6223 15.3629 9.79795 11.696 9.79795C9.81166 9.79804 7.91307 10.0297 6.05287 10.4867Z" fill="white"/>
</svg>
