<svg width="28" height="29" viewBox="0 0 28 29" fill="none" xmlns="http://www.w3.org/2000/svg">
<path d="M16.1433 14.2235L12.9069 12.7134C12.6244 12.5822 12.3924 12.7292 12.3924 13.0419V15.8864C12.3924 16.1991 12.6244 16.3461 12.9069 16.2149L16.1419 14.7048C16.4257 14.5722 16.4257 14.3561 16.1433 14.2235ZM13.8334 0.630737C6.19333 0.630737 0 6.82407 0 14.4641C0 22.1042 6.19333 28.2976 13.8334 28.2976C21.4735 28.2976 27.6668 22.1042 27.6668 14.4641C27.6668 6.82407 21.4735 0.630737 13.8334 0.630737ZM13.8334 20.084C6.75243 20.084 6.62851 19.4456 6.62851 14.4641C6.62851 9.48268 6.75243 8.84432 13.8334 8.84432C20.9144 8.84432 21.0383 9.48268 21.0383 14.4641C21.0383 19.4456 20.9144 20.084 13.8334 20.084Z" fill="white"/>
</svg>
