<svg width="443" height="443" viewBox="0 0 443 443" fill="none" xmlns="http://www.w3.org/2000/svg">
<g clip-path="url(#clip0_1090_17)">
<path d="M428.59 203.31L295.98 169.62C284.66 166.74 275.82 157.9 272.94 146.58L239.25 13.98C234.52 -4.66 208.04 -4.66 203.31 13.98L169.62 146.59C166.74 157.91 157.9 166.75 146.58 169.63L13.98 203.31C-4.66 208.04 -4.66 234.52 13.98 239.25L146.59 272.94C157.91 275.82 166.75 284.66 169.63 295.98L203.32 428.59C208.05 447.23 234.53 447.23 239.26 428.59L272.95 295.98C275.83 284.66 284.67 275.82 295.99 272.94L428.6 239.25C447.24 234.52 447.24 208.04 428.6 203.31H428.59Z" fill="#E300FF"/>
</g>
<defs>
<clipPath id="clip0_1090_17">
<rect width="442.56" height="442.57" fill="white"/>
</clipPath>
</defs>
</svg>
